<svg width="136" height="142" viewBox="0 0 136 142" fill="none" xmlns="http://www.w3.org/2000/svg">
<g style="mix-blend-mode:multiply">
<path d="M20.7027 98.454C32.1364 111.151 51.6982 112.175 64.3952 100.742C77.0923 89.308 78.1165 69.7462 66.6829 57.0491C55.2492 44.3521 35.6875 43.3279 22.9904 54.7615C10.2933 66.1951 9.2691 85.7569 20.7027 98.454Z" fill="#80D3F1"/>
</g>
<path d="M103.887 113.656L76.4297 102.997L65.7701 130.455L93.2278 141.114L103.887 113.656Z" fill="#F7CF52"/>
<path d="M85.8768 34.8822C89.5366 36.6119 93.2645 37.1833 96.978 35.1134C100.691 33.0435 103.551 29.5769 106.626 26.6095L101.915 22.6126C95.9593 30.0993 90.436 38.8526 94.1222 48.684C98.087 59.2413 109.071 63.8461 118.846 67.4863C122.616 68.8903 124.467 62.9912 120.74 61.5484C116.05 59.7275 111.185 58.4598 106.198 57.7629C101.58 57.1226 96.3921 57.2569 92.4677 60.083C88.4194 62.9994 87.6533 67.8866 86.9685 72.5023C86.2048 77.6279 85.9486 82.8061 86.1244 87.9846L92.0211 86.7515C89.9653 81.5602 87.9133 76.3654 85.8574 71.1742C84.4858 67.7095 83.2995 62.5564 79.3813 61.0664C75.4632 59.5763 71.5649 63.3982 68.6107 65.6196C64.249 68.9032 60.0132 72.3423 55.8861 75.9101L60.5966 79.9071C63.2638 74.6316 65.9454 69.3644 68.5907 64.0804C70.6202 60.0304 72.6269 55.6328 71.4278 51.0078C68.7845 40.8176 57.3566 39.0759 48.4855 38.7902C44.4477 38.6607 44.1901 44.5763 48.1595 45.015C54.6472 45.7271 61.3872 45.7448 67.8364 44.63C71.1022 44.0673 73.9155 42.7585 76.0048 40.1268C76.9698 38.9111 77.4128 37.8468 78.2096 36.6409C82.5212 30.1182 79.2933 20.5678 76.6154 14.1671C75.0397 10.405 69.7126 13.2768 71.0432 16.9553C73.645 24.1676 78.926 31.4234 85.862 34.8815C89.408 36.6499 92.8176 31.4208 89.2169 29.6309C83.1446 26.6054 78.8819 20.4569 76.6154 14.1671L71.0432 16.9553C72.6323 20.7479 74.0678 24.9123 73.9423 29.088C73.907 30.2593 73.7923 31.028 73.5134 32.0152C73.4447 32.2612 72.9039 33.4134 73.3165 32.6455C73.2751 32.7252 72.9359 33.2289 72.952 33.2782C72.9715 33.3313 72.7402 33.5538 72.7113 33.6082C73.642 31.9065 72.2314 34.5216 72.0227 34.8793C70.428 37.6672 68.2608 38.3024 65.2416 38.7066C59.6758 39.4506 54.0512 39.3982 48.4745 38.7859L48.1486 45.0107C53.9226 45.1976 65.3424 45.6726 65.5632 53.8328C65.6607 57.5175 63.0424 61.2909 61.4509 64.444C59.4148 68.4787 57.3751 72.5096 55.335 76.5479C53.8103 79.5629 57.2333 82.9711 60.0455 80.5449C63.1427 77.8691 66.2922 75.2595 69.5189 72.7432C71.1304 71.4831 72.7631 70.2465 74.4059 69.029C75.0723 68.5351 76.112 67.5281 76.884 67.2221C77.6561 66.9162 76.8033 66.6295 77.4376 67.2474C78.4653 68.2472 78.9864 70.7437 79.493 72.0216C80.2625 73.9687 81.032 75.9158 81.8016 77.8629C83.3406 81.7571 84.8871 85.6517 86.4262 89.546C87.558 92.3984 92.4274 91.3685 92.323 88.3129C92.1913 84.3545 92.3017 80.3977 92.7091 76.4564C93.0581 73.134 93.0675 67.4773 95.949 65.2223C98.8305 62.9673 103.412 63.5982 106.758 64.131C110.895 64.787 114.922 65.981 118.82 67.4961L120.714 61.5582C112.834 58.6243 103.355 55.1486 99.9637 46.6585C96.8652 38.9025 102.563 31.7262 107.139 25.9772C109.336 23.2208 104.928 19.5674 102.429 21.9803C99.0829 25.2128 94.5591 32.16 89.2094 29.6305C85.6369 27.9425 82.2237 33.1677 85.8546 34.8811L85.8768 34.8822Z" fill="black"/>
</svg>
