<svg width="235" height="226" viewBox="0 0 235 226" fill="none" xmlns="http://www.w3.org/2000/svg">
<g clip-path="url(#clip0_511_78)">
<path d="M192.659 171.817L208.062 198.588C210.555 204.481 205.883 211.442 197.63 214.134L192.946 215.66C184.69 218.352 175.977 215.759 173.484 209.866L168.516 193.634C178.891 188.996 187.378 181.296 192.659 171.817Z" stroke="black" stroke-width="6.44057" stroke-miterlimit="10"/>
<g style="mix-blend-mode:multiply">
<path d="M139.732 184.049C132.104 169.32 138.641 150.791 154.335 142.663C170.028 134.535 188.934 139.885 196.562 154.614C204.191 169.342 197.653 187.871 181.96 195.999C166.267 204.127 147.361 198.777 139.732 184.049Z" fill="#F7CF52"/>
</g>
<g style="mix-blend-mode:multiply">
<path d="M102.452 113.697C101.711 107.359 106.692 101.568 113.579 100.763C120.465 99.957 126.649 104.442 127.39 110.78C128.131 117.118 123.15 122.909 116.263 123.715C109.377 124.52 103.193 120.035 102.452 113.697Z" fill="#61C5E3"/>
</g>
<g style="mix-blend-mode:multiply">
<path d="M174.894 101.427C174.153 95.0892 179.135 89.2982 186.021 88.4926C192.907 87.6871 199.091 92.1721 199.832 98.5101C200.574 104.848 195.592 110.639 188.706 111.445C181.819 112.25 175.636 107.765 174.894 101.427Z" fill="#61C5E3"/>
</g>
<path d="M80.6503 199.525L101.713 177.144C107.423 184.91 115.459 191.05 124.87 194.71L111.817 216.203C107.843 221.516 98.5858 222.594 91.1464 218.613L86.9263 216.353C79.4837 212.371 76.6769 204.835 80.6506 199.522L80.6503 199.525Z" stroke="black" stroke-width="6.44057" stroke-miterlimit="10"/>
<path d="M188.367 120.154L206.066 104.679C211.234 101.049 218.85 102.978 223.075 108.994L225.47 112.406C229.696 118.419 228.927 126.24 223.759 129.87L198.077 144.718C197.939 143.133 197.718 141.571 197.422 140.036C196.004 132.7 192.843 125.951 188.364 120.153L188.367 120.154Z" stroke="black" stroke-width="6.67672" stroke-miterlimit="10"/>
<path d="M105.402 117.192C115.507 127.045 129.659 133.032 145.209 132.708C160.763 132.384 174.653 125.811 184.338 115.546C185.777 117.004 187.118 118.543 188.363 120.156C192.839 125.953 196.003 132.7 197.421 140.039C197.717 141.574 197.938 143.136 198.076 144.721C198.169 145.756 198.226 146.802 198.25 147.857C198.429 156.376 196.27 164.437 192.332 171.51C187.051 180.989 178.567 188.689 168.189 193.327C161.627 196.261 154.311 197.97 146.571 198.133C138.989 198.292 131.751 196.944 125.178 194.389C115.768 190.729 107.728 184.589 102.021 176.823C96.4161 169.196 93.0519 160.006 92.8452 150.055C92.5849 137.556 97.3469 126.043 105.399 117.195L105.402 117.192Z" stroke="black" stroke-width="5.96826" stroke-miterlimit="10"/>
<path d="M154.722 28.7546C152.438 19.8536 157.802 10.5255 167.044 7.63097C176.582 4.64297 186.638 9.63979 189.504 18.7899C192.212 27.4334 187.535 36.6909 178.97 40.2079C172.173 34.3303 163.776 30.3573 154.722 28.7546Z" stroke="black" stroke-width="5.96826" stroke-miterlimit="10"/>
<path d="M72.1061 45.661C70.46 35.6221 77.609 26.0901 88.0707 24.3761C98.2103 22.7151 107.74 28.9963 109.823 38.5217C102.002 44.3565 95.9425 52.1288 92.3048 60.9403C82.5095 61.692 73.6617 55.1469 72.1058 45.6642L72.1061 45.661Z" stroke="black" stroke-width="5.96826" stroke-miterlimit="10"/>
<path d="M96.8831 55.0686C101.729 46.8616 108.827 40.0217 117.393 35.3479C124.977 31.208 133.71 28.767 143.04 28.5717C152.369 28.3763 161.194 30.4535 168.948 34.2724C177.7 38.5836 185.076 45.1215 190.261 53.1214C195.233 60.7936 198.19 69.8123 198.39 79.5085C198.679 93.3402 193.315 106.029 184.338 115.547C174.654 125.811 160.764 132.384 145.21 132.708C129.657 133.032 115.504 127.045 105.403 117.193C96.0358 108.061 90.1492 95.6063 89.8635 81.7717C89.6602 72.0753 92.2391 62.9436 96.8863 55.0688L96.8831 55.0686Z" stroke="black" stroke-width="5.96826" stroke-miterlimit="10"/>
<path d="M97.6427 110.922C97.6427 110.922 79.5759 124.142 61.286 129.348C11.0682 143.646 2.97097 151.593 3.554 158.532C3.76977 161.103 4.95062 164.131 10.9841 164.399C21.6807 164.872 63.1147 173.97 62.0364 183.23C62.0364 183.23 103.21 159.342 104.499 153.973" stroke="black" stroke-width="5.521" stroke-linecap="round" stroke-linejoin="round"/>
<path d="M166.394 94.6142C162.075 100.192 156.411 97.6955 156.915 92.5236" stroke="black" stroke-width="5.19181" stroke-miterlimit="10" stroke-linecap="round"/>
<path d="M146.936 101.5C149.734 103.599 155.004 96.7141 155.411 92.0348" stroke="black" stroke-width="5.19181" stroke-miterlimit="10" stroke-linecap="round"/>
<path d="M186.055 88.8613L172.183 88.8743L180.119 77.4027" stroke="black" stroke-width="5.00933" stroke-linecap="round" stroke-linejoin="round"/>
<path d="M105.037 118.608C91.0703 126.801 85.9395 135.427 84.6534 140.635C82.8285 148.021 88.4391 165.152 108.921 163.034C119.639 161.927 123.882 161.088 124.366 154.312C125.201 142.599 116.026 141.025 108.64 145.399" fill="white"/>
<path d="M105.037 118.608C91.0703 126.801 85.9395 135.427 84.6534 140.635C82.8285 148.021 88.4391 165.152 108.921 163.034C119.639 161.927 123.882 161.088 124.366 154.312C125.201 142.599 116.026 141.025 108.64 145.399" stroke="black" stroke-width="5.96826" stroke-miterlimit="10" stroke-linecap="round"/>
<path d="M121.851 93.2226L136.512 96.803L125.155 106.869" stroke="black" stroke-width="4.79464" stroke-linecap="round" stroke-linejoin="round"/>
<path d="M195.498 179.542C189.725 186.613 182.581 192.383 174.415 196.479C172.199 197.592 170.517 194.134 172.727 193.024C180.282 189.232 186.981 183.911 192.329 177.361C193.882 175.459 197.065 177.622 195.494 179.545L195.498 179.542Z" fill="black"/>
<path d="M121.14 199.335C116.317 199.038 111.953 194.837 108.697 191.595C105.254 188.169 102.405 184.171 100.189 179.854C99.0564 177.645 102.517 175.967 103.644 178.165C105.56 181.898 107.978 185.308 110.881 188.343C112.332 189.859 113.892 191.251 115.558 192.526C117.223 193.801 119.172 195.361 121.427 195.5C123.896 195.653 123.613 199.487 121.14 199.335Z" fill="black"/>
<path d="M120.409 197.416C117.947 196.355 115.538 195.188 113.167 193.935C110.985 192.782 113.181 189.624 115.351 190.769C117.521 191.915 119.551 192.867 121.708 193.796C123.968 194.768 122.694 198.4 120.413 197.417L120.409 197.416Z" fill="black"/>
<path d="M191.985 215.652C186.658 215.559 181.103 214.867 176.56 211.854C174.619 210.568 172.938 208.893 171.708 206.919C170.549 205.058 169.341 202.526 170.502 200.447C171.708 198.288 174.866 200.481 173.667 202.631C174.027 201.983 173.913 202.614 174.096 203.126C174.229 203.496 174.401 203.855 174.578 204.206C174.972 204.984 175.463 205.686 176.034 206.342C177.182 207.665 178.621 208.747 180.181 209.538C183.892 211.426 188.184 211.743 192.272 211.818C194.749 211.862 194.453 215.695 191.985 215.652Z" fill="black"/>
<path d="M108.278 189.527C95.4554 187.838 86.6659 199.285 79.9735 208.427C78.5167 210.419 75.3407 208.247 76.808 206.243C84.3202 195.98 94.2752 183.814 108.565 185.692C111.009 186.013 110.738 189.849 108.278 189.527Z" fill="black"/>
<path d="M102.444 187.027C100.267 186.707 98.1596 186.749 96.0026 187.191C94.1819 187.563 92.8252 185.039 94.3763 183.847C96.4795 182.234 98.6352 180.692 100.84 179.218C101.71 178.638 102.807 178.575 103.553 179.421C104.175 180.127 104.213 181.559 103.35 182.134C101.142 183.604 98.9896 185.146 96.8862 186.763C96.3429 185.649 95.8031 184.532 95.2599 183.418C97.7269 182.912 100.24 182.827 102.731 183.193C105.166 183.552 104.898 187.391 102.444 187.027Z" fill="black"/>
<path d="M217.819 134.409C214.44 136.451 210.907 138.535 206.935 139.102C205.149 139.358 203.342 139.328 201.583 138.917C199.685 138.473 198.2 137.45 196.524 136.524L199.534 135.085C199.574 136.219 199.833 137.353 200.305 138.385C200.584 138.994 201.318 139.498 200.342 139.4C199.254 139.289 200.473 138.76 200.837 138.238L200.535 139.7C201.521 140.342 201.66 140.636 200.954 140.58C200.661 140.59 200.371 140.549 200.089 140.46C199.513 140.298 199.157 139.995 198.731 139.591C196.933 137.888 199.864 135.392 201.646 137.081C201.088 136.554 201.39 136.679 201.966 136.758C202.398 136.819 202.884 136.981 203.252 137.223C203.852 137.622 204.235 138.248 204.314 138.954C204.489 140.526 202.523 142.58 201.068 143.004C197.048 144.175 195.804 137.434 195.709 134.792C195.653 133.185 197.595 132.732 198.718 133.353C200.011 134.067 201.167 134.902 202.64 135.224C204.113 135.546 205.762 135.458 207.283 135.131C210.494 134.433 213.367 132.627 216.143 130.949C218.263 129.668 219.932 133.134 217.832 134.404L217.819 134.409Z" fill="black"/>
<path d="M112.087 124.913C109.185 124.567 106.235 124.195 103.373 124.997C100.708 125.742 98.312 127.317 95.995 128.782C93.9008 130.104 92.2357 126.634 94.3063 125.327C96.9368 123.667 99.6022 122.054 102.63 121.223C105.812 120.353 109.148 120.692 112.374 121.078C114.823 121.371 114.549 125.206 112.087 124.913Z" fill="black"/>
<path d="M106.918 121.544C104.452 121.36 104.735 117.525 107.205 117.71C109.675 117.895 109.388 121.729 106.918 121.544Z" fill="black"/>
<path d="M110.603 165.233C105.049 166.591 99.5646 166.711 94.0001 165.327C91.6028 164.73 92.908 161.113 95.296 161.707C100.176 162.92 105.013 162.646 109.86 161.459C112.269 160.872 113.002 164.647 110.603 165.233Z" fill="black"/>
<path d="M98.7173 52.7865C92.4519 62.0182 78.9027 58.402 72.8045 51.0087C71.2284 49.0978 74.1409 46.5878 75.7202 48.4988C80.2068 53.9401 90.7091 57.7397 95.5553 50.5995C96.9453 48.5539 100.115 50.7285 98.7207 52.7835L98.7173 52.7865Z" fill="black"/>
<path d="M89.2826 60.0683L87.9118 59.9657C86.9085 59.8907 86.0127 58.9368 86.1381 57.9052C86.2635 56.8735 87.1251 56.0511 88.1987 56.1314L89.5694 56.234C90.5727 56.309 91.4685 57.2629 91.3431 58.2945C91.2178 59.3262 90.3562 60.1486 89.2826 60.0683Z" fill="black"/>
<path d="M157.847 18.6773C156.975 23.4221 158.607 28.6723 163.819 29.7852C164.843 30.0032 165.288 31.3571 164.981 32.2434C164.604 33.3302 163.532 33.6227 162.523 33.4058C155.767 31.9622 152.864 24.6472 154.013 18.3904C154.457 15.9816 158.296 16.2431 157.847 18.6773Z" fill="black"/>
<path d="M153.751 28.4893C151.285 28.3047 151.568 24.4702 154.038 24.6549C156.508 24.8397 156.221 28.674 153.751 28.4893Z" fill="black"/>
<path d="M104.619 119.936C103.078 117.732 100.791 116.208 98.0975 115.84C94.9424 115.408 92.2696 117.033 89.3388 117.896C86.9634 118.596 86.2406 114.814 88.5961 114.123C90.5707 113.541 92.4093 112.545 94.4352 112.137C96.0434 111.814 97.718 111.849 99.32 112.168C102.612 112.826 105.601 114.663 107.534 117.429C108.942 119.44 106.038 121.967 104.619 119.939L104.619 119.936Z" fill="black"/>
<path d="M60.3015 180.951C59.2868 176.261 52.1795 174.54 48.3189 173.358C42.2974 171.513 36.0442 170.788 29.8336 169.88C27.399 169.525 27.6666 165.689 30.1205 166.046C37.2688 167.089 44.4419 167.972 51.3219 170.283C56.384 171.982 62.8053 174.326 64.0749 180.205C64.5973 182.628 60.8246 183.364 60.3018 180.948L60.3015 180.951Z" fill="black"/>
<path d="M64.3904 144.945C61.2358 145.708 58.0586 146.345 54.8508 146.831C51.7308 147.304 48.5399 147.48 45.4559 148.159C40.0293 149.356 34.8946 152.192 31.6314 156.771C30.1987 158.784 27.023 156.609 28.4659 154.587C32.0311 149.58 37.4212 146.337 43.2927 144.732C46.4613 143.867 49.756 143.68 52.9974 143.216C56.5799 142.703 60.1271 142.017 63.6447 141.168C66.0565 140.584 66.7859 144.363 64.3874 144.942L64.3904 144.945Z" fill="black"/>
<path d="M78.0092 140.411C76.3442 141.579 74.5981 142.585 72.7237 143.374C70.4479 144.331 68.7525 140.879 71.035 139.919C72.6008 139.261 74.109 138.471 75.5023 137.499C76.3533 136.904 77.4876 136.861 78.2151 137.702C78.8418 138.43 78.8668 139.814 78.0121 140.415L78.0092 140.411Z" fill="black"/>
<path d="M140.597 135.104C134.284 134.571 127.927 133.989 121.811 132.249C115.695 130.51 110.298 127.478 105.783 123.066C104.011 121.333 106.938 118.837 108.699 120.556C117.349 129.011 129.408 130.302 140.884 131.27C143.349 131.476 143.068 135.311 140.597 135.104Z" fill="black"/>
<path d="M102.17 166.806C102.176 173.724 106.42 179.607 110.312 184.968C111.757 186.959 108.853 189.483 107.396 187.478C102.838 181.196 98.3422 174.588 98.3353 166.519C98.334 164.045 102.168 164.341 102.17 166.806Z" fill="black"/>
</g>
<defs>
<clipPath id="clip0_511_78">
<rect width="235" height="226" fill="white"/>
</clipPath>
</defs>
</svg>
