<svg width="270" height="264" viewBox="0 0 270 264" fill="none" xmlns="http://www.w3.org/2000/svg">
<g clip-path="url(#clip0_511_117)">
<path d="M88.8968 210.752L88.8165 245.242C89.6691 252.336 98.0579 256.49 107.55 254.522L112.936 253.403C122.431 251.433 129.438 244.087 128.586 236.993L124.397 218.506C111.769 219.765 99.2731 217.01 88.8968 210.752Z" stroke="black" stroke-width="6.44057" stroke-miterlimit="10"/>
<g style="mix-blend-mode:multiply">
<path d="M151.856 194.031C151.08 175.525 134.467 161.193 114.748 162.019C95.0301 162.846 79.6739 178.518 80.4494 197.024C81.2249 215.53 97.8383 229.862 117.557 229.036C137.275 228.209 152.631 212.537 151.856 194.031Z" fill="#80D3F1"/>
</g>
<g style="mix-blend-mode:multiply">
<path d="M144.09 104.388C141.293 97.8336 133.253 94.9839 126.132 98.0227C119.011 101.062 115.505 108.838 118.302 115.392C121.099 121.946 129.139 124.796 136.26 121.757C143.381 118.718 146.887 110.942 144.09 104.388Z" fill="#DF7291"/>
</g>
<g style="mix-blend-mode:multiply">
<path d="M69.011 131.566C66.2142 125.012 58.174 122.163 51.0529 125.201C43.9317 128.24 40.4261 136.017 43.223 142.571C46.0198 149.125 54.06 151.975 61.1811 148.936C68.3023 145.897 71.8079 138.12 69.011 131.566Z" fill="#DF7291"/>
</g>
<path d="M212.826 175.48L179.998 165.47C178.771 176.164 174.388 186.573 167.297 195.34L191.869 208.931C198.668 211.877 208.238 207.787 213.24 199.801L216.076 195.271C221.081 187.283 219.622 178.422 212.824 175.477L212.826 175.48Z" stroke="black" stroke-width="6.44057" stroke-miterlimit="10"/>
<path d="M64.4018 158.298L38.6651 153.117C31.6426 152.465 25.3316 158.559 24.5735 166.733L24.1439 171.368C23.3838 179.54 28.4664 186.694 35.4889 187.345L68.6153 187.492C67.8705 185.879 67.2179 184.243 66.6534 182.59C63.9588 174.694 63.279 166.399 64.4048 158.296L64.4018 158.298Z" stroke="black" stroke-width="6.67672" stroke-miterlimit="10"/>
<path d="M143.169 109.412C138.841 124.565 128.445 138.218 113.194 146.528C97.9393 154.841 80.831 156.175 65.7516 151.598C65.1645 153.809 64.7194 156.045 64.4074 158.298C63.2847 166.4 63.9594 174.694 66.6561 182.593C67.2205 184.245 67.8732 185.882 68.6179 187.494C69.1021 188.549 69.6269 189.594 70.1893 190.63C74.7407 198.986 81.3035 205.601 89.0436 210.272C99.4199 216.53 111.913 219.288 124.544 218.026C132.532 217.231 140.57 214.829 148.162 210.694C155.599 206.643 161.866 201.322 166.819 195.2C173.91 186.433 178.296 176.023 179.52 165.331C180.723 154.83 178.886 144.056 173.567 134.298C166.887 122.039 155.885 113.522 143.174 109.413L143.169 109.412Z" stroke="black" stroke-width="5.96826" stroke-miterlimit="10"/>
<path d="M46.316 51.0524C43.5926 41.1588 33.2205 35.0926 22.6575 37.4135C11.7555 39.808 4.78056 50.2286 7.07793 60.6866C9.24752 70.5659 18.915 76.9443 29.1678 75.6019C32.4948 66.1358 38.4301 57.6273 46.316 51.0524Z" stroke="black" stroke-width="5.96826" stroke-miterlimit="10"/>
<path d="M135.765 21.6155C131.792 10.9728 119.576 5.69949 108.486 9.84085C97.7371 13.855 91.9851 25.2283 95.2496 35.6156C106.065 36.9332 116.25 41.1051 124.662 47.6276C134.573 42.9232 139.518 31.6721 135.767 21.6185L135.765 21.6155Z" stroke="black" stroke-width="5.96826" stroke-miterlimit="10"/>
<path d="M116.969 44.4755C107.721 39.2089 97.0469 36.5169 86.1527 36.738C76.5058 36.9322 66.688 39.41 57.5375 44.3953C48.3869 49.3806 40.9854 56.2889 35.5887 64.2907C29.498 73.3231 25.9748 83.7512 25.3863 94.3807C24.8229 104.574 26.96 114.955 32.1441 124.464C39.5357 138.03 51.7726 147.353 65.7512 151.598C80.8305 156.175 97.9389 154.842 113.193 146.529C128.447 138.217 138.843 124.563 143.169 109.412C147.183 95.3658 145.98 80.0299 138.584 66.4628C133.402 56.9523 125.838 49.5322 116.966 44.4775L116.969 44.4755Z" stroke="black" stroke-width="5.96826" stroke-miterlimit="10"/>
<path d="M147.212 99.0299C147.212 99.0299 172.055 101.822 192.669 96.7232C249.271 82.7275 261.527 85.9393 264.811 92.988C266.027 95.5991 266.563 99.1892 260.864 102.796C250.759 109.186 215.647 140.986 221.828 149.363C221.828 149.363 168.673 149.048 164.446 144.558" stroke="black" stroke-width="5.521" stroke-linecap="round" stroke-linejoin="round"/>
<path d="M71.1931 122.146C76.5656 124.998 82.3513 118.313 81.1438 113.176" stroke="black" stroke-width="5.19181" stroke-miterlimit="10" stroke-linecap="round"/>
<path d="M94.031 116.689C90.4982 121.687 82.3381 118.337 81.1309 113.195" stroke="black" stroke-width="5.19181" stroke-miterlimit="10" stroke-linecap="round"/>
<path d="M49.2864 126.687L62.7386 119.005L48.6835 112.289" stroke="black" stroke-width="5.00933" stroke-linecap="round" stroke-linejoin="round"/>
<path d="M144.308 110.581C162.389 110.775 172.146 116.289 176.282 120.624C182.147 126.77 186.211 146.486 165.185 155.793C154.183 160.665 149.605 162.205 145.378 155.907C138.072 145.017 146.091 138.403 155.676 138.545" fill="white"/>
<path d="M144.308 110.581C162.389 110.775 172.146 116.289 176.282 120.624C182.147 126.77 186.211 146.486 165.185 155.793C154.183 160.665 149.605 162.205 145.378 155.907C138.072 145.017 146.091 138.403 155.676 138.545" stroke="black" stroke-width="5.96826" stroke-miterlimit="10" stroke-linecap="round"/>
<path d="M113.932 95.303L101.709 106.905L118.299 110.361" stroke="black" stroke-width="4.79464" stroke-linecap="round" stroke-linejoin="round"/>
<path d="M90.4307 219.813C99.9476 223.464 110.072 225.094 120.258 224.535C123.024 224.384 122.736 220.099 119.978 220.249C110.553 220.765 101.109 219.323 92.2923 215.941C89.7325 214.959 87.8471 218.821 90.4357 219.814L90.4307 219.813Z" fill="black"/>
<path d="M173.476 197.753C177.986 194.79 179.886 188.298 181.244 183.35C182.68 178.121 183.224 172.665 182.977 167.252C182.85 164.483 178.565 164.775 178.692 167.532C178.906 172.211 178.453 176.858 177.323 181.409C176.758 183.683 176.018 185.898 175.111 188.058C174.204 190.217 173.179 192.81 171.071 194.196C168.763 195.713 171.165 199.273 173.476 197.753Z" fill="black"/>
<path d="M173.121 195.489C174.919 193.094 176.607 190.627 178.209 188.097C179.684 185.769 175.804 183.927 174.336 186.24C172.869 188.554 171.429 190.603 169.854 192.7C168.203 194.896 171.452 197.709 173.118 195.491L173.121 195.489Z" fill="black"/>
<path d="M113.864 252.862C118.975 249.817 123.975 246.066 126.707 240.625C127.875 238.303 128.575 235.748 128.672 233.151C128.764 230.705 128.53 227.58 126.252 226.21C123.886 224.786 122.041 228.663 124.395 230.082C123.687 229.654 124.148 230.202 124.254 230.8C124.33 231.232 124.363 231.676 124.386 232.114C124.435 233.087 124.349 234.039 124.16 234.992C123.781 236.911 122.986 238.757 121.913 240.389C119.363 244.277 115.38 246.965 111.459 249.305C109.082 250.722 111.496 254.273 113.864 252.862Z" fill="black"/>
<path d="M180.502 181.114C191.993 172.365 206.86 178.584 218.417 183.732C220.934 184.855 222.808 180.989 220.274 179.86C207.301 174.079 190.905 167.81 178.097 177.557C175.907 179.223 178.296 182.79 180.502 181.114Z" fill="black"/>
<path d="M184.771 175.455C186.703 173.937 188.769 172.809 191.105 172.041C193.076 171.391 192.99 168.193 190.826 167.898C187.893 167.501 184.949 167.202 181.994 166.997C180.829 166.916 179.731 167.464 179.477 168.698C179.265 169.727 180.024 171.136 181.178 171.215C184.134 171.415 187.076 171.716 190.011 172.116C189.919 170.735 189.823 169.353 189.732 167.972C187.06 168.85 184.578 170.161 182.366 171.898C180.205 173.596 182.594 177.168 184.771 175.455Z" fill="black"/>
<path d="M43.7634 188.45C48.1703 188.555 52.7507 188.616 56.915 186.962C58.7879 186.219 60.5229 185.188 61.9997 183.814C63.5928 182.331 64.4644 180.516 65.575 178.689L61.8602 178.963C62.45 180.085 62.8282 181.328 62.9425 182.59C63.0098 183.334 62.5789 184.23 63.47 183.593C64.4628 182.883 62.9881 183.047 62.3461 182.742L63.4497 183.992C62.8499 185.161 62.8781 185.523 63.5312 185.077C63.8209 184.924 64.0787 184.724 64.3034 184.481C64.7717 184.005 64.9492 183.513 65.1376 182.885C65.9353 180.238 61.7105 179.445 60.9196 182.07C61.1684 181.249 60.945 181.539 60.4305 181.934C60.0454 182.233 59.6641 182.659 59.4426 183.098C59.082 183.817 59.0576 184.637 59.3729 185.365C60.075 186.986 63.1196 187.886 64.7654 187.49C69.3115 186.395 66.778 179.172 65.4045 176.559C64.5676 174.969 62.434 175.608 61.6897 176.833C60.8324 178.242 60.1759 179.692 58.9267 180.821C57.6776 181.951 56.0306 182.779 54.3747 183.307C50.8757 184.411 47.0896 184.254 43.4678 184.167C40.7025 184.101 41.0081 188.387 43.7475 188.452L43.7634 188.45Z" fill="black"/>
<path d="M140.972 120.602C143.593 118.658 146.246 116.661 149.465 115.85C152.461 115.094 155.657 115.292 158.715 115.427C161.478 115.546 161.167 111.26 158.435 111.142C154.965 110.991 151.487 110.907 148.092 111.781C144.525 112.702 141.48 114.881 138.568 117.045C136.356 118.686 138.749 122.251 140.972 120.602Z" fill="black"/>
<path d="M144.113 114.47C146.402 112.923 144 109.364 141.709 110.913C139.417 112.462 141.822 116.019 144.113 114.47Z" fill="black"/>
<path d="M164.774 158.857C170.91 157.093 176.292 154.167 180.918 149.74C182.91 147.832 179.639 145.05 177.654 146.949C173.597 150.832 168.757 153.249 163.401 154.788C160.74 155.554 162.124 159.62 164.774 158.857Z" fill="black"/>
<path d="M113.926 43.2811C125.119 48.7535 136.245 37.7335 138.054 27.1855C138.522 24.4593 134.307 23.642 133.836 26.3701C132.506 34.1324 124.435 43.64 115.777 39.4077C113.295 38.1961 111.43 42.0616 113.921 43.2801L113.926 43.2811Z" fill="black"/>
<path d="M127.108 45.1059L128.379 44.2462C129.31 43.617 129.649 42.1957 128.956 41.2653C128.262 40.3349 126.971 40.0158 125.975 40.6891L124.703 41.5488C123.772 42.178 123.433 43.5993 124.127 44.5297C124.821 45.4601 126.112 45.7792 127.108 45.1059Z" fill="black"/>
<path d="M37.6983 43.0185C41.1754 47.1334 42.5061 53.1269 38.0719 57.0964C37.1996 57.8761 37.5193 59.4351 38.3087 60.1237C39.2768 60.9679 40.4785 60.6565 41.336 59.8868C47.0826 54.7408 45.8396 46.0405 41.2554 40.6138C39.4894 38.5253 35.9132 40.9083 37.6983 43.0185Z" fill="black"/>
<path d="M47.1096 50.2569C49.398 48.7099 46.9963 45.1508 44.7049 46.6998C42.4135 48.2488 44.8182 51.806 47.1096 50.2569Z" fill="black"/>
<path d="M145.45 111.636C145.721 108.645 147.092 105.901 149.498 104.049C152.317 101.88 155.808 101.973 159.128 101.184C161.818 100.545 160.421 96.4791 157.755 97.1155C155.519 97.647 153.184 97.7007 150.994 98.4294C149.256 99.0083 147.653 99.9713 146.277 101.169C143.451 103.633 141.573 107.07 141.234 110.824C140.984 113.554 145.2 114.392 145.452 111.639L145.45 111.636Z" fill="black"/>
<path d="M222.244 146.192C220.626 141.083 226.56 135.474 229.646 132.187C234.459 127.059 240.118 122.888 245.633 118.563C247.796 116.868 245.409 113.299 243.229 115.006C236.879 119.981 230.416 124.816 225.03 130.872C221.066 135.326 216.143 141.16 218.173 147.562C219.011 150.2 223.076 148.821 222.242 146.189L222.244 146.192Z" fill="black"/>
<path d="M198.311 113.562C201.792 112.552 205.224 111.407 208.603 110.099C211.889 108.827 215.08 107.228 218.445 106.175C224.369 104.326 230.918 104.226 236.62 106.854C239.126 108.011 240.997 104.141 238.477 102.981C232.245 100.107 225.222 99.9526 218.641 101.654C215.09 102.573 211.793 104.219 208.394 105.567C204.637 107.057 200.819 108.36 196.939 109.488C194.278 110.26 195.666 114.327 198.312 113.557L198.311 113.562Z" fill="black"/>
<path d="M182.597 116.722C184.858 116.93 187.109 116.937 189.363 116.661C192.1 116.327 191.828 112.041 189.083 112.376C187.201 112.608 185.301 112.678 183.411 112.509C182.256 112.404 181.133 112.991 180.895 114.21C180.691 115.263 181.434 116.618 182.596 116.727L182.597 116.722Z" fill="black"/>
<path d="M118.993 146.292C124.815 142.274 130.654 138.184 135.617 133.106C140.58 128.028 144.128 122.096 146.058 115.315C146.815 112.653 142.593 111.857 141.84 114.5C138.145 127.493 127.174 135.432 116.588 142.735C114.314 144.303 116.713 147.864 118.993 146.292Z" fill="black"/>
<path d="M173.82 155.705C177.652 162.413 176.8 170.469 176.002 177.824C175.706 180.555 179.921 181.39 180.22 178.639C181.154 170.022 181.846 161.124 177.377 153.3C176.006 150.901 172.455 153.315 173.82 155.705Z" fill="black"/>
</g>
<defs>
<clipPath id="clip0_511_117">
<rect width="270" height="264" fill="white"/>
</clipPath>
</defs>
</svg>
