<svg width="324" height="194" viewBox="0 0 324 194" fill="none" xmlns="http://www.w3.org/2000/svg">
<path d="M284.687 80.7156C292.81 79.1488 300.439 74.9786 306.016 68.8461C310.612 63.7913 316.803 54.4422 310.047 48.4886C307.065 45.8589 302.804 46.2429 300.044 49.0157C297.331 51.7401 297.018 55.7485 297.53 59.3568C298.1 63.3555 300.184 66.7938 303.931 68.5055C307.524 70.1484 311.65 70.1555 315.509 69.7988C324.128 69.0084 333.229 65.0549 337.14 56.8732C338.591 53.8372 334.122 50.9872 332.652 54.0637C330.233 59.1196 325.575 62.1579 320.263 63.5987C317.605 64.3176 314.87 64.6985 312.116 64.6936C309.605 64.6931 306.58 64.5167 304.621 62.7362C302.794 61.0738 302.372 57.8485 302.643 55.5086C302.873 53.5135 304.995 50.4233 306.939 52.831C310.185 56.8549 303.657 63.8264 301.005 66.4261C296.199 71.1343 290.163 74.262 283.57 75.5326C280.216 76.1804 281.352 81.3523 284.691 80.7069L284.687 80.7156Z" fill="black"/>
<g style="mix-blend-mode:multiply">
<path d="M181.748 134.407C125.955 134.407 70.1613 134.245 14.3752 134.599C6.9223 134.643 3.51991 131.756 1.76716 125.297C-1.97401 111.467 -0.162341 99.006 10.9507 88.9903C21.5187 79.468 33.5597 76.4927 46.9852 82.0161C50.9178 83.6363 53.0167 83.7541 55.3439 79.4017C60.4917 69.7689 68.5411 63.5018 79.6467 61.8153C83.3437 61.2556 85.1701 59.709 85.5825 55.4524C88.4694 25.9575 115.725 3.97452 144.911 8.62152C167.299 12.1859 186.211 28.2847 190.195 54.9368C190.792 58.9431 191.985 60.4234 196.013 61.1083C213.695 64.1204 224.477 74.6442 228.741 92.0907C231.9 105.015 225.523 123.147 214.469 130.563C212.09 132.161 208.791 132.971 205.874 133.089C197.471 134.591 189.798 134.392 181.756 134.392C181.756 133.995 181.756 134.79 181.756 134.392L181.748 134.407Z" fill="#80D3F1"/>
</g>
<path d="M173.83 14.4713C174.706 11.1425 176.039 8.17465 177.91 5.28777L171.252 3.48346C171.238 6.10522 171.216 8.72698 171.201 11.3487C171.186 13.1825 170.884 15.3182 171.547 17.0857C173.02 21.011 179.059 21.0846 182.491 21.8505L184.391 14.9573C175.539 13.4476 166.944 10.8921 158.777 7.14362L156.023 13.6759C159.602 15.1415 163.063 16.8427 166.458 18.6911L165.736 13.0794C162.761 15.4729 159.778 17.8663 156.803 20.2672C153.371 23.0288 157.753 27.3444 161.134 25.8789C162.305 25.3708 163.483 24.8552 164.654 24.3471C165.434 24.0083 166.215 23.6696 167.003 23.3234C168.041 23.3381 168.388 23.0583 168.056 22.4839C167.769 21.7916 167.968 22.0052 168.66 23.1098C169.058 23.6548 169.441 24.1998 169.816 24.7595C170.707 26.0557 171.547 27.3739 172.372 28.7069C174.102 31.498 179.39 30.6216 179.029 26.9026C178.639 22.8374 177.88 18.8605 176.422 15.0384C175.502 12.6228 174.287 11.7243 172.202 10.4282C168.284 7.99053 164.698 14.1693 168.594 16.5996L170.707 17.9179L169.065 15.7822C170.509 19.3687 171.51 23.0509 171.886 26.9026L178.543 25.0983C176.658 22.0567 174.051 16.2756 170.155 15.3992C166.296 14.5302 160.935 18.2198 157.532 19.7001C158.976 21.5707 160.419 23.4413 161.863 25.3118C164.838 22.9184 167.821 20.5249 170.796 18.1241C172.585 16.688 171.93 13.5286 170.074 12.5123C166.134 10.3619 162.084 8.48395 157.93 6.77539C154.218 5.25094 151.501 11.6212 155.176 13.3077C163.917 17.3213 173.005 20.2303 182.498 21.8431C186.946 22.6017 188.949 15.9663 184.398 14.95C182.785 14.5891 180.355 13.5434 178.72 13.6833L177.299 13.3666C178.249 15.4213 178.595 15.4581 178.344 13.4918C178.875 10.3324 178.389 6.67228 178.411 3.47609C178.433 -0.191433 173.631 -1.22245 171.753 1.6718C169.566 5.04474 167.975 8.67544 166.952 12.5565C165.773 17.0047 172.666 18.9047 173.845 14.4566L173.83 14.4713Z" fill="black"/>
<path d="M98.073 170.608C98.9453 167.245 100.299 164.237 102.2 161.331L95.4741 159.508C95.456 162.011 95.444 164.52 95.426 167.022C95.4139 169.008 95.053 171.348 95.7689 173.249C97.2488 177.171 103.349 177.286 106.82 178.062L108.739 171.101C99.7996 169.591 91.1004 166.998 82.8585 163.202L80.0791 169.802C83.6947 171.282 87.196 172.996 90.6192 174.867L89.8912 169.2C86.8832 171.619 83.8752 174.037 80.8672 176.462C77.3959 179.253 81.8298 183.615 85.2408 182.129C86.6245 181.527 88.0082 180.925 89.3859 180.324C89.6626 180.204 93.6212 178.73 92.0991 178.363C92.7609 178.519 94.0002 180.986 94.3852 181.557C95.1432 182.682 95.8712 183.831 96.581 184.986C98.3257 187.82 103.662 186.917 103.307 183.163C102.928 179.163 102.194 175.246 100.78 171.474C99.7996 168.863 98.6566 167.925 96.4066 166.523C92.448 164.063 88.8204 170.307 92.7609 172.756L94.8965 174.085L93.2361 171.925C94.704 175.541 95.7147 179.271 96.0817 183.163C98.3257 182.556 100.564 181.948 102.808 181.341C100.919 178.272 98.3858 172.834 94.68 171.685C92.5443 171.023 90.7696 171.901 88.8384 172.738C86.414 173.784 84.0015 174.843 81.5831 175.896L85.9567 181.563C88.9648 179.145 91.9728 176.726 94.9808 174.302C96.7916 172.846 96.1238 169.657 94.2528 168.635C90.2763 166.457 86.1853 164.556 81.9862 162.841C78.2322 161.307 75.4949 167.732 79.2068 169.441C88.0323 173.508 97.2248 176.444 106.808 178.068C111.302 178.826 113.33 172.136 108.727 171.107C107.193 170.764 105.653 170.421 104.119 170.079C103.65 169.976 102.519 169.495 102.074 169.621C101.328 169.333 101.334 169.555 102.086 170.289C102.645 171.444 102.82 171.324 102.615 169.916C103.193 166.661 102.663 162.817 102.681 159.508C102.705 155.797 97.8564 154.774 95.9554 157.686C93.7415 161.073 92.1232 164.766 91.1004 168.683C89.9273 173.183 96.8879 175.102 98.061 170.602L98.073 170.608Z" fill="black"/>
<g style="mix-blend-mode:multiply">
<path d="M320.853 108.12C330.545 108.12 341.324 109.169 349.093 114.359C359.612 121.401 363.111 132.47 361.496 144.457C360.968 148.384 362.153 149.892 365.578 151.599C376.22 156.896 380.952 166.449 378.257 176.132C375.051 187.675 367.478 193.087 354.279 193.087C298.369 193.11 242.45 193.171 186.539 193.072C154.907 193.018 133.015 167.85 139.777 138.8C143.592 122.389 155.589 112.238 172.01 106.918C176.19 105.564 177.562 103.925 177.911 100.006C179.745 79.2927 200.76 66.5324 220.931 74.8607C228.87 78.1445 231.248 75.6262 234.909 70.1071C247.377 51.3073 274.553 44.5482 294.813 54.7365C315.837 65.3 322.915 88.3712 320.869 108.113L320.853 108.12Z" fill="#F7CF52"/>
</g>
</svg>
