<svg width="288" height="226" viewBox="0 0 288 226" fill="none" xmlns="http://www.w3.org/2000/svg">
<path d="M53.4467 201.013C62.8733 205.4 73.7155 206.772 83.9134 204.635C92.3176 202.872 105.51 197.91 103.015 186.87C101.914 181.994 97.292 179.247 92.4385 180.038C87.668 180.814 84.3965 184.666 82.2605 188.719C79.8954 193.211 79.4847 198.248 82.0406 202.752C84.4903 207.072 88.6865 210.118 92.88 212.597C102.241 218.141 114.422 220.818 124.433 215.366C128.146 213.343 125.694 207.148 121.931 209.199C115.743 212.566 108.761 212.23 102.289 209.784C99.0529 208.559 95.9868 206.932 93.1854 204.899C90.6279 203.048 87.6767 200.64 86.9934 197.384C86.3566 194.345 88.3024 190.749 90.3026 188.566C92.0067 186.703 96.4442 185.119 96.6504 189.003C96.9924 195.492 85.2079 197.784 80.592 198.478C72.2289 199.734 63.7776 198.473 56.1263 194.911C52.2337 193.1 49.5808 199.205 53.4565 201.006L53.4467 201.013Z" fill="#3D3833"/>
<path d="M276.017 78.7579C276.779 75.8208 277.961 73.1938 279.621 70.6561L273.747 69.0641C273.731 71.2498 273.721 73.4407 273.705 75.6264C273.695 77.3603 273.379 79.4041 274.005 81.0644C275.297 84.4901 280.625 84.5899 283.656 85.2677L285.332 79.1887C277.525 77.8699 269.927 75.6054 262.729 72.2901L260.302 78.0538C263.46 79.3463 266.518 80.8438 269.507 82.4778L268.871 77.5284C266.244 79.6406 263.617 81.7527 260.99 83.8701C257.959 86.308 261.831 90.1172 264.81 88.8195C266.018 88.2941 267.227 87.7687 268.43 87.2433C268.672 87.1382 272.129 85.8509 270.8 85.5304C271.378 85.667 272.46 87.8212 272.796 88.3203C273.458 89.3029 274.094 90.3064 274.714 91.3152C276.238 93.7899 280.898 93.0017 280.588 89.7232C280.257 86.2292 279.616 82.8088 278.381 79.5145C277.525 77.2342 276.527 76.4146 274.562 75.1903C271.104 73.0414 267.936 78.4952 271.378 80.6336L273.243 81.7947L271.793 79.9085C273.075 83.0662 273.957 86.3238 274.278 89.7232C276.238 89.1925 278.192 88.6619 280.152 88.1312C278.502 85.4516 276.29 80.7019 273.054 79.6984C271.188 79.1204 269.638 79.8875 267.952 80.6178C265.834 81.532 263.728 82.4568 261.615 83.3762L265.435 88.3256C268.062 86.2134 270.689 84.1013 273.316 81.9839C274.898 80.7124 274.315 77.9277 272.681 77.0345C269.208 75.1326 265.635 73.4723 261.967 71.9748C258.689 70.635 256.298 76.2464 259.54 77.7386C267.248 81.2904 275.276 83.8544 283.646 85.273C287.571 85.935 289.341 80.0924 285.322 79.194C283.982 78.8945 282.637 78.595 281.297 78.2955C280.887 78.2062 279.9 77.7859 279.511 77.8962C278.859 77.644 278.865 77.8384 279.521 78.4794C280.01 79.4882 280.162 79.3831 279.984 78.1537C280.488 75.3112 280.026 71.9538 280.042 69.0641C280.063 65.8223 275.828 64.9291 274.167 67.4721C272.234 70.4301 270.821 73.6561 269.927 77.0766C268.903 81.0066 274.982 82.6827 276.006 78.7526L276.017 78.7579Z" fill="#3D3833"/>
<g style="mix-blend-mode:multiply">
<path d="M233.106 109.475C242.256 109.475 252.432 110.53 259.766 115.751C269.697 122.837 273 133.973 271.475 146.033C270.977 149.984 272.096 151.501 275.329 153.219C285.375 158.548 289.843 168.159 287.299 177.901C284.272 189.515 277.122 194.96 264.662 194.96C211.88 194.983 159.09 195.045 106.307 194.945C76.4447 194.891 55.7777 169.569 62.1609 140.342C65.7625 123.83 77.0884 113.618 92.5906 108.266C96.537 106.903 97.832 105.254 98.1615 101.311C99.8934 80.4714 119.733 67.6332 138.775 76.0123C146.27 79.3162 148.515 76.7825 151.971 71.2298C163.741 52.3152 189.397 45.5149 208.524 55.7654C228.371 66.3933 235.053 89.6053 233.122 109.467L233.106 109.475Z" fill="#DF7291" fill-opacity="0.8"/>
</g>
<g style="mix-blend-mode:multiply">
<path d="M107.231 131.8C49.1402 131.8 -8.95026 131.631 -67.033 131.999C-74.7927 132.046 -78.3352 129.036 -80.1601 122.301C-84.0553 107.881 -82.169 94.8884 -70.5985 84.4454C-59.5953 74.5169 -47.0587 71.4147 -33.0805 77.1737C-28.9859 78.863 -26.8006 78.9859 -24.3777 74.4478C-19.0179 64.4041 -10.6371 57.8695 0.925728 56.1111C4.77491 55.5275 6.67651 53.915 7.1059 49.4767C10.1116 18.7236 38.4898 -4.19721 68.8768 0.648034C92.1866 4.36451 111.877 21.1501 116.025 48.9392C116.647 53.1164 117.889 54.6598 122.083 55.374C140.493 58.5145 151.719 69.4874 156.158 87.6782C159.448 101.154 152.807 120.059 141.298 127.792C138.821 129.458 135.386 130.302 132.35 130.425C123.601 131.992 115.611 131.784 107.238 131.784C107.238 131.37 107.238 132.199 107.238 131.784L107.231 131.8Z" fill="#80D3F1"/>
</g>
</svg>
