<svg width="409" height="580" viewBox="0 0 409 580" fill="none" xmlns="http://www.w3.org/2000/svg">
<path d="M90.8497 121.4L90.4114 122.234" stroke="black" stroke-width="5.43142" stroke-linecap="round" stroke-linejoin="round"/>
<g style="mix-blend-mode:multiply">
<path d="M49.8331 139.613C59.8459 130.419 60.5099 114.849 51.3162 104.836C42.1225 94.8237 26.5526 94.1597 16.5398 103.353C6.52708 112.547 5.86311 128.117 15.0568 138.13C24.2505 148.142 39.8204 148.806 49.8331 139.613Z" fill="#80D3F1"/>
</g>
<path d="M61.285 73.0743L53.0166 95L74.9423 103.268L83.2107 81.3427L61.285 73.0743Z" fill="#F7CF52"/>
<path d="M37.4052 157.716C45.5274 156.149 53.1565 151.979 58.734 145.846C63.3297 140.791 69.5212 131.442 62.7651 125.489C59.7824 122.859 55.5222 123.243 52.7622 126.016C50.0488 128.74 49.7357 132.748 50.2481 136.357C50.818 140.355 52.9014 143.794 56.6488 145.505C60.2422 147.148 64.3673 147.155 68.2266 146.799C76.8458 146.008 85.9464 142.055 89.8581 133.873C91.3084 130.837 86.8395 127.987 85.3697 131.064C82.9507 136.12 78.293 139.158 72.9807 140.599C70.3232 141.318 67.5882 141.698 64.8342 141.694C62.3228 141.693 59.2977 141.517 57.3391 139.736C55.5116 138.074 55.0894 134.849 55.361 132.509C55.5912 130.513 57.7131 127.423 59.6568 129.831C62.9029 133.855 56.3745 140.826 53.7226 143.426C48.9167 148.134 42.8809 151.262 36.2876 152.533C32.9342 153.18 34.07 158.352 37.4086 157.707L37.4052 157.716Z" fill="black"/>
<path d="M-1.24343 87.4234C0.104415 84.4986 0.530218 81.5285 -1.1451 78.5903C-2.82042 75.6521 -5.60021 73.4042 -7.98456 70.9807L-11.128 74.7588C-5.12608 79.4393 1.88001 83.7658 9.67278 80.7575C18.0409 77.522 21.6194 68.7485 24.44 60.9437C25.5279 57.9338 20.8206 56.507 19.7016 59.483C18.2892 63.2284 17.3182 67.108 16.8022 71.0811C16.3285 74.7599 16.4753 78.8857 18.7538 81.9859C21.1051 85.1839 24.9989 85.7557 28.6761 86.2649C32.7595 86.8329 36.881 86.9969 40.9993 86.8171L39.9728 82.1355C35.8589 83.8111 31.742 85.4835 27.6281 87.1591C24.8824 88.2769 20.7921 89.2604 19.6369 92.3889C18.4818 95.5174 21.5522 98.5891 23.3422 100.922C25.988 104.367 28.7567 107.71 31.6267 110.966L34.7701 107.187C30.5528 105.106 26.3419 103.014 22.1179 100.95C18.8803 99.3666 15.3664 97.8041 11.6964 98.7937C3.61012 100.975 2.31267 110.08 2.15377 117.139C2.08189 120.352 6.78988 120.512 7.10831 117.351C7.62479 112.184 7.58692 106.822 6.65035 101.7C6.17754 99.1062 5.11459 96.8782 3.00491 95.2364C2.03032 94.4782 1.18024 94.1339 0.214757 93.5093C-5.00743 90.1296 -12.5802 92.7712 -17.6515 94.9508C-20.6322 96.2334 -18.3066 100.449 -15.3905 99.3622C-9.67289 97.2368 -3.94139 92.9797 -1.2439 87.4352C0.135641 84.6006 -4.05058 81.9284 -5.44679 84.8068C-7.80683 89.6608 -12.6653 93.0992 -17.6515 94.9508L-15.3905 99.3622C-12.3856 98.0688 -9.08378 96.8947 -5.76085 96.9624C-4.82878 96.9814 -4.21638 97.0667 -3.42886 97.2809C-3.23269 97.3337 -2.31188 97.7551 -2.92598 97.4327C-2.8622 97.4651 -2.45891 97.731 -2.41985 97.7179C-2.37771 97.7019 -2.19891 97.8842 -2.15545 97.9068C-3.51636 97.1795 -1.42514 98.2815 -1.13891 98.4448C1.09126 99.6919 1.61322 101.411 1.95812 103.81C2.59285 108.232 2.59452 112.707 2.15043 117.148L7.10497 117.359C7.20911 112.764 7.49896 103.676 13.989 103.437C16.9195 103.331 19.9415 105.385 22.4622 106.627C25.6877 108.216 28.9101 109.807 32.1384 111.399C34.5487 112.589 37.2336 109.839 35.2818 107.621C33.1293 105.178 31.0289 102.692 29.0023 100.145C27.9874 98.8725 26.9911 97.5832 26.0098 96.2856C25.6118 95.7593 24.8026 94.94 24.5533 94.3281C24.304 93.7163 24.0825 94.3969 24.5691 93.8875C25.3566 93.0623 27.3386 92.6285 28.3513 92.2156C29.8943 91.5884 31.4374 90.9612 32.9804 90.334C36.0665 89.0796 39.1529 87.8193 42.239 86.5649C44.4995 85.6426 43.6427 81.7767 41.2126 81.8834C38.0646 82.0186 34.916 81.9614 31.7774 81.6676C29.1317 81.4156 24.6316 81.4517 22.8154 79.1768C20.9993 76.9019 21.4659 73.2524 21.8639 70.5862C22.3539 67.2902 23.2727 64.0776 24.4479 60.9648L19.7096 59.5041C17.4363 65.7952 14.7444 73.3626 8.01639 76.1261C1.87013 78.6508 -3.88274 74.1734 -8.49153 70.577C-10.7013 68.851 -13.5737 72.386 -11.6349 74.3552C-9.03757 76.9921 -3.47594 80.5373 -5.44704 84.8127C-6.7623 87.6678 -2.57917 90.3427 -1.24416 87.4411L-1.24343 87.4234Z" fill="black"/>
<path d="M212.659 418.817L228.062 445.588C230.555 451.481 225.883 458.441 217.63 461.134L212.946 462.66C204.69 465.352 195.977 462.759 193.484 456.866L188.516 440.634C198.891 435.996 207.378 428.296 212.659 418.817Z" stroke="black" stroke-width="6.44057" stroke-miterlimit="10"/>
<g style="mix-blend-mode:multiply">
<path d="M159.732 431.049C152.104 416.32 158.641 397.791 174.335 389.663C190.028 381.535 208.934 386.885 216.562 401.614C224.191 416.342 217.653 434.871 201.96 442.999C186.267 451.127 167.361 445.777 159.732 431.049Z" fill="#F7CF52"/>
</g>
<g style="mix-blend-mode:multiply">
<path d="M122.452 360.697C121.711 354.359 126.692 348.568 133.579 347.763C140.465 346.957 146.649 351.442 147.39 357.78C148.131 364.118 143.15 369.909 136.263 370.715C129.377 371.52 123.193 367.035 122.452 360.697Z" fill="#61C5E3"/>
</g>
<g style="mix-blend-mode:multiply">
<path d="M194.894 348.427C194.153 342.089 199.135 336.298 206.021 335.493C212.907 334.687 219.091 339.172 219.832 345.51C220.574 351.848 215.592 357.639 208.706 358.445C201.819 359.25 195.636 354.765 194.894 348.427Z" fill="#61C5E3"/>
</g>
<path d="M100.65 446.525L121.713 424.144C127.423 431.91 135.459 438.05 144.87 441.71L131.817 463.203C127.843 468.516 118.586 469.594 111.146 465.613L106.926 463.353C99.4837 459.371 96.6769 451.835 100.651 446.522L100.65 446.525Z" stroke="black" stroke-width="6.44057" stroke-miterlimit="10"/>
<path d="M208.367 367.154L226.066 351.679C231.234 348.049 238.85 349.978 243.075 355.994L245.47 359.406C249.696 365.419 248.927 373.24 243.759 376.87L218.077 391.718C217.939 390.133 217.718 388.571 217.422 387.036C216.004 379.7 212.843 372.951 208.364 367.153L208.367 367.154Z" stroke="black" stroke-width="6.67672" stroke-miterlimit="10"/>
<path d="M125.402 364.192C135.507 374.045 149.659 380.032 165.209 379.708C180.763 379.384 194.653 372.811 204.338 362.546C205.777 364.004 207.118 365.543 208.363 367.156C212.839 372.953 216.003 379.7 217.421 387.039C217.717 388.574 217.938 390.136 218.076 391.721C218.169 392.756 218.226 393.802 218.25 394.857C218.429 403.376 216.27 411.437 212.332 418.51C207.051 427.989 198.567 435.689 188.189 440.327C181.627 443.261 174.311 444.97 166.571 445.133C158.989 445.292 151.751 443.944 145.178 441.389C135.768 437.729 127.728 431.589 122.021 423.823C116.416 416.196 113.052 407.006 112.845 397.055C112.585 384.556 117.347 373.043 125.399 364.195L125.402 364.192Z" stroke="black" stroke-width="5.96826" stroke-miterlimit="10"/>
<path d="M174.722 275.755C172.438 266.854 177.802 257.525 187.044 254.631C196.582 251.643 206.638 256.64 209.504 265.79C212.212 274.433 207.535 283.691 198.97 287.208C192.173 281.33 183.776 277.357 174.722 275.755Z" stroke="black" stroke-width="5.96826" stroke-miterlimit="10"/>
<path d="M92.1061 292.661C90.46 282.622 97.609 273.09 108.071 271.376C118.21 269.715 127.74 275.996 129.823 285.522C122.002 291.357 115.943 299.129 112.305 307.94C102.51 308.692 93.6617 302.147 92.1058 292.664L92.1061 292.661Z" stroke="black" stroke-width="5.96826" stroke-miterlimit="10"/>
<path d="M116.883 302.069C121.729 293.862 128.827 287.022 137.393 282.348C144.977 278.208 153.71 275.767 163.04 275.572C172.369 275.376 181.194 277.454 188.948 281.272C197.7 285.584 205.076 292.122 210.261 300.121C215.233 307.794 218.19 316.812 218.39 326.508C218.679 340.34 213.315 353.029 204.338 362.547C194.654 372.811 180.764 379.384 165.21 379.708C149.657 380.032 135.504 374.045 125.403 364.193C116.036 355.061 110.149 342.606 109.863 328.772C109.66 319.075 112.239 309.944 116.886 302.069L116.883 302.069Z" stroke="black" stroke-width="5.96826" stroke-miterlimit="10"/>
<path d="M117.643 357.922C117.643 357.922 99.5759 371.142 81.286 376.348C31.0682 390.646 22.971 398.593 23.554 405.532C23.7698 408.103 24.9506 411.131 30.9841 411.399C41.6807 411.872 83.1147 420.97 82.0364 430.23C82.0364 430.23 123.21 406.342 124.499 400.973" stroke="black" stroke-width="5.521" stroke-linecap="round" stroke-linejoin="round"/>
<path d="M187.001 342.07C184.094 346.698 176.636 344.071 175.296 339.524" stroke="black" stroke-width="5.19181" stroke-miterlimit="10" stroke-linecap="round"/>
<path d="M166.84 348.007C171.792 350.321 176.636 344.068 175.296 339.524" stroke="black" stroke-width="5.19181" stroke-miterlimit="10" stroke-linecap="round"/>
<path d="M206.055 335.861L192.183 335.874L200.119 324.403" stroke="black" stroke-width="5.00933" stroke-linecap="round" stroke-linejoin="round"/>
<path d="M125.037 365.608C111.07 373.801 105.939 382.427 104.653 387.635C102.828 395.021 108.439 412.152 128.921 410.034C139.639 408.927 143.882 408.088 144.366 401.312C145.201 389.599 136.026 388.025 128.64 392.399" fill="white"/>
<path d="M125.037 365.608C111.07 373.801 105.939 382.427 104.653 387.635C102.828 395.021 108.439 412.152 128.921 410.034C139.639 408.927 143.882 408.088 144.366 401.312C145.201 389.599 136.026 388.025 128.64 392.399" stroke="black" stroke-width="5.96826" stroke-miterlimit="10" stroke-linecap="round"/>
<path d="M141.851 340.223L156.512 343.803L145.155 353.868" stroke="black" stroke-width="4.79464" stroke-linecap="round" stroke-linejoin="round"/>
<path d="M215.498 426.542C209.725 433.613 202.581 439.383 194.415 443.479C192.199 444.592 190.517 441.134 192.727 440.024C200.282 436.232 206.981 430.911 212.329 424.361C213.882 422.459 217.065 424.622 215.494 426.545L215.498 426.542Z" fill="black"/>
<path d="M141.14 446.335C136.317 446.038 131.953 441.837 128.697 438.595C125.254 435.169 122.405 431.171 120.189 426.854C119.056 424.645 122.517 422.967 123.644 425.165C125.56 428.898 127.978 432.308 130.881 435.343C132.332 436.859 133.892 438.251 135.558 439.526C137.223 440.801 139.172 442.361 141.427 442.5C143.896 442.653 143.613 446.487 141.14 446.335Z" fill="black"/>
<path d="M140.409 444.416C137.947 443.355 135.538 442.188 133.167 440.935C130.985 439.782 133.181 436.624 135.351 437.769C137.521 438.915 139.551 439.867 141.708 440.796C143.968 441.768 142.694 445.4 140.413 444.417L140.409 444.416Z" fill="black"/>
<path d="M211.985 462.652C206.658 462.559 201.103 461.867 196.56 458.854C194.619 457.568 192.938 455.894 191.708 453.919C190.549 452.058 189.341 449.526 190.502 447.447C191.708 445.288 194.866 447.481 193.667 449.631C194.027 448.983 193.913 449.614 194.096 450.126C194.229 450.496 194.401 450.855 194.578 451.206C194.972 451.984 195.463 452.686 196.034 453.342C197.182 454.665 198.621 455.747 200.181 456.538C203.892 458.426 208.184 458.743 212.272 458.818C214.749 458.862 214.453 462.695 211.985 462.652Z" fill="black"/>
<path d="M128.278 436.527C115.455 434.838 106.666 446.285 99.9735 455.427C98.5167 457.419 95.3407 455.247 96.808 453.243C104.32 442.98 114.275 430.814 128.565 432.693C131.009 433.013 130.738 436.849 128.278 436.527Z" fill="black"/>
<path d="M122.444 434.027C120.267 433.707 118.16 433.749 116.003 434.191C114.182 434.563 112.825 432.039 114.376 430.847C116.48 429.234 118.635 427.692 120.84 426.218C121.71 425.638 122.807 425.575 123.553 426.421C124.175 427.127 124.213 428.559 123.35 429.134C121.142 430.604 118.99 432.146 116.886 433.763C116.343 432.649 115.803 431.532 115.26 430.418C117.727 429.912 120.24 429.827 122.731 430.193C125.166 430.552 124.898 434.391 122.444 434.027Z" fill="black"/>
<path d="M237.819 381.409C234.44 383.451 230.907 385.535 226.935 386.102C225.149 386.358 223.342 386.328 221.583 385.917C219.685 385.473 218.2 384.45 216.524 383.524L219.534 382.085C219.574 383.219 219.833 384.353 220.305 385.385C220.584 385.994 221.318 386.498 220.342 386.4C219.254 386.289 220.473 385.76 220.837 385.238L220.535 386.7C221.521 387.342 221.66 387.636 220.954 387.58C220.661 387.59 220.371 387.549 220.089 387.46C219.513 387.298 219.157 386.995 218.731 386.591C216.933 384.888 219.864 382.392 221.646 384.081C221.088 383.554 221.39 383.679 221.966 383.758C222.398 383.819 222.884 383.981 223.252 384.223C223.852 384.622 224.235 385.248 224.314 385.955C224.489 387.526 222.523 389.58 221.068 390.004C217.048 391.175 215.804 384.434 215.709 381.792C215.653 380.185 217.595 379.732 218.718 380.353C220.011 381.067 221.167 381.902 222.64 382.224C224.113 382.546 225.762 382.458 227.283 382.131C230.494 381.433 233.367 379.627 236.143 377.949C238.263 376.668 239.932 380.134 237.832 381.404L237.819 381.409Z" fill="black"/>
<path d="M132.087 371.913C129.185 371.567 126.235 371.195 123.373 371.997C120.708 372.742 118.312 374.317 115.995 375.782C113.901 377.104 112.236 373.634 114.306 372.327C116.937 370.667 119.602 369.054 122.63 368.223C125.812 367.353 129.148 367.692 132.374 368.078C134.823 368.371 134.549 372.206 132.087 371.913Z" fill="black"/>
<path d="M126.918 368.544C124.452 368.36 124.735 364.525 127.205 364.71C129.675 364.895 129.388 368.729 126.918 368.544Z" fill="black"/>
<path d="M130.603 412.233C125.049 413.591 119.565 413.711 114 412.327C111.603 411.73 112.908 408.113 115.296 408.707C120.176 409.92 125.013 409.646 129.86 408.459C132.269 407.872 133.002 411.647 130.603 412.233Z" fill="black"/>
<path d="M118.717 299.786C112.452 309.018 98.9027 305.402 92.8045 298.009C91.2284 296.098 94.1409 293.588 95.7202 295.499C100.207 300.94 110.709 304.74 115.555 297.6C116.945 295.554 120.115 297.729 118.721 299.784L118.717 299.786Z" fill="black"/>
<path d="M109.283 307.068L107.912 306.966C106.909 306.891 106.013 305.937 106.138 304.905C106.263 303.873 107.125 303.051 108.199 303.131L109.569 303.234C110.573 303.309 111.469 304.263 111.343 305.295C111.218 306.326 110.356 307.149 109.283 307.068Z" fill="black"/>
<path d="M177.847 265.677C176.975 270.422 178.607 275.672 183.819 276.785C184.843 277.003 185.288 278.357 184.981 279.243C184.604 280.33 183.532 280.623 182.523 280.406C175.767 278.962 172.864 271.647 174.013 265.39C174.457 262.982 178.296 263.243 177.847 265.677Z" fill="black"/>
<path d="M173.751 275.489C171.285 275.305 171.568 271.47 174.038 271.655C176.508 271.84 176.221 275.674 173.751 275.489Z" fill="black"/>
<path d="M124.619 366.936C123.078 364.732 120.791 363.208 118.098 362.84C114.942 362.408 112.27 364.033 109.339 364.896C106.963 365.596 106.241 361.814 108.596 361.123C110.571 360.541 112.409 359.545 114.435 359.137C116.043 358.814 117.718 358.849 119.32 359.168C122.612 359.826 125.601 361.663 127.534 364.429C128.942 366.44 126.038 368.967 124.619 366.939L124.619 366.936Z" fill="black"/>
<path d="M80.3015 427.951C79.2868 423.261 72.1795 421.54 68.3189 420.358C62.2974 418.513 56.0442 417.788 49.8336 416.88C47.399 416.525 47.6666 412.689 50.1205 413.046C57.2688 414.089 64.4419 414.972 71.3219 417.283C76.384 418.982 82.8053 421.326 84.0749 427.205C84.5973 429.628 80.8246 430.364 80.3018 427.948L80.3015 427.951Z" fill="black"/>
<path d="M84.3904 391.945C81.2358 392.708 78.0586 393.345 74.8508 393.831C71.7308 394.304 68.5399 394.48 65.4559 395.159C60.0293 396.356 54.8946 399.192 51.6314 403.771C50.1987 405.784 47.023 403.609 48.4659 401.587C52.0311 396.58 57.4212 393.337 63.2927 391.732C66.4613 390.867 69.756 390.68 72.9974 390.216C76.5799 389.703 80.1271 389.017 83.6447 388.168C86.0565 387.584 86.7859 391.363 84.3874 391.942L84.3904 391.945Z" fill="black"/>
<path d="M98.0092 387.411C96.3442 388.579 94.5981 389.585 92.7237 390.374C90.4479 391.331 88.7525 387.879 91.035 386.919C92.6008 386.261 94.109 385.471 95.5023 384.499C96.3533 383.904 97.4876 383.86 98.2151 384.702C98.8418 385.43 98.8668 386.814 98.0121 387.415L98.0092 387.411Z" fill="black"/>
<path d="M160.597 382.104C154.284 381.571 147.927 380.989 141.811 379.249C135.695 377.51 130.298 374.478 125.783 370.066C124.011 368.333 126.938 365.837 128.699 367.556C137.349 376.011 149.408 377.302 160.884 378.27C163.349 378.476 163.068 382.311 160.597 382.104Z" fill="black"/>
<path d="M122.17 413.806C122.176 420.724 126.42 426.607 130.312 431.968C131.757 433.959 128.853 436.483 127.396 434.478C122.838 428.196 118.342 421.588 118.335 413.519C118.334 411.045 122.168 411.341 122.17 413.806Z" fill="black"/>
<path d="M68.863 489.429C67.0332 486.762 65.7467 483.974 64.8665 480.864L59.4777 484.476C61.2249 486.017 62.98 487.558 64.7272 489.099C66.1146 490.32 67.5383 492.003 69.3111 492.661C72.9707 494.017 76.777 489.801 79.4424 487.836L75.7245 482.237C69.2033 487.595 62.0684 492.123 54.3674 495.595L57.3062 501.578C60.5543 499.942 63.8974 498.529 67.3027 497.267L62.8767 494.317C62.7385 497.908 62.6003 501.498 62.4663 505.092C62.3073 509.236 68.0796 508.785 69.1191 505.481C69.5416 504.141 69.9641 502.802 70.3829 501.467C70.4674 501.199 71.8497 497.517 70.6622 498.362C71.1763 497.993 73.6661 498.629 74.3028 498.708C75.5562 498.862 76.808 499.053 78.0531 499.259C81.1094 499.764 83.7347 495.464 80.8806 493.421C77.8384 491.243 74.6387 489.367 71.1252 488.056C68.6919 487.151 67.3344 487.38 64.9754 488.105C60.8289 489.383 63.0003 495.746 67.1273 494.473L69.3658 493.785L66.8343 493.632C70.271 494.809 73.5088 496.377 76.4675 498.497C77.4112 496.549 78.3513 494.606 79.295 492.658C75.9857 492.111 70.6179 490.569 67.5472 492.471C65.7778 493.567 65.3109 495.35 64.7189 497.218C63.9734 499.56 63.2438 501.902 62.5063 504.244L69.159 504.633C69.2972 501.042 69.4354 497.452 69.5694 493.858C69.6526 491.696 67.0047 490.218 65.1434 490.908C61.1846 492.371 57.3503 494.084 53.581 495.987C50.2103 497.687 53.0523 503.535 56.5198 501.971C64.7675 498.254 72.4446 493.589 79.4393 487.849C82.7167 485.154 79.2551 479.644 75.7214 482.249C74.5435 483.117 73.3619 483.99 72.184 484.858C71.8255 485.125 70.7966 485.626 70.6134 486.016C69.9549 486.364 70.115 486.495 71.0899 486.415C72.2431 486.728 72.2652 486.532 71.1512 485.816C69.2174 483.422 66.1933 481.446 63.8798 479.412C61.2867 477.128 57.6066 479.91 58.4911 483.024C59.5184 486.648 61.125 490.041 63.2518 493.152C65.6967 496.725 71.2964 493.007 68.8515 489.434L68.863 489.429Z" fill="black"/>
<path d="M253.919 11.3094C254.909 9.56281 256.114 8.08627 257.61 6.74869L254.128 4.72529C253.744 6.11951 253.362 7.51798 252.978 8.9122C252.674 10.0185 252.123 11.2708 252.238 12.439C252.477 14.8497 255.865 15.8259 257.687 16.7782L259.799 13.1801C255.035 11.0002 250.567 8.25184 246.534 4.90028L243.996 8.16828C245.793 9.5351 247.491 11.0158 249.121 12.5721L249.563 9.3C247.522 10.2 245.481 11.1 243.44 12.0034C241.085 13.0424 242.907 16.14 245.033 15.8208C245.896 15.6919 246.758 15.5631 247.617 15.4333C247.789 15.4075 250.219 15.1769 249.425 14.7444C249.771 14.9307 250.094 16.4928 250.223 16.8694C250.478 17.6107 250.712 18.361 250.936 19.1119C251.486 20.9544 254.599 21.2488 254.963 19.1003C255.349 16.8106 255.525 14.5148 255.3 12.1979C255.144 10.5939 254.646 9.89907 253.6 8.78015C251.758 6.81469 248.799 9.75771 250.633 11.7138L251.626 12.7753L251.022 11.3214C251.301 13.5591 251.307 15.7922 250.93 18.0197C252.273 18.0162 253.613 18.0117 254.957 18.0082C254.361 16.0131 253.761 12.5987 251.864 11.4031C250.771 10.7143 249.649 10.9391 248.446 11.117C246.936 11.3387 245.431 11.5689 243.924 11.7948L245.518 15.6122C247.558 14.7122 249.599 13.8121 251.641 12.9088C252.869 12.367 252.973 10.4874 252.082 9.63668C250.188 7.82635 248.189 6.15339 246.101 4.56834C244.235 3.1506 241.747 6.32752 243.563 7.83634C247.881 11.4263 252.573 14.4398 257.679 16.7798C260.074 17.875 262.206 14.4442 259.791 13.1816C258.986 12.7608 258.178 12.3391 257.373 11.9182C257.126 11.7909 256.567 11.3532 256.3 11.3571C255.926 11.0843 255.896 11.2095 256.206 11.7316C256.346 12.46 256.461 12.419 256.558 11.6026C257.367 9.87232 257.646 7.6474 258.151 5.80321C258.72 3.73494 256.166 2.43888 254.67 3.77981C252.927 5.33923 251.472 7.15899 250.315 9.19207C248.987 11.5284 252.585 13.6406 253.913 11.3043L253.919 11.3094Z" fill="black"/>
<path d="M115.63 194.608C116.502 191.245 117.856 188.237 119.757 185.331L113.031 183.508C113.013 186.011 113.001 188.52 112.983 191.022C112.971 193.008 112.61 195.348 113.326 197.249C114.805 201.171 120.906 201.286 124.377 202.062L126.296 195.101C117.356 193.591 108.657 190.998 100.415 187.202L97.6357 193.802C101.251 195.282 104.753 196.996 108.176 198.867L107.448 193.2C104.44 195.619 101.432 198.037 98.4238 200.462C94.9526 203.253 99.3864 207.615 102.797 206.129C104.181 205.527 105.565 204.925 106.943 204.324C107.219 204.204 111.178 202.73 109.656 202.363C110.318 202.519 111.557 204.986 111.942 205.557C112.7 206.682 113.428 207.831 114.138 208.986C115.882 211.82 121.219 210.917 120.864 207.163C120.485 203.163 119.751 199.246 118.337 195.474C117.356 192.863 116.213 191.925 113.963 190.523C110.005 188.063 106.377 194.307 110.318 196.756L112.453 198.085L110.793 195.925C112.261 199.541 113.271 203.271 113.638 207.163C115.882 206.556 118.12 205.948 120.364 205.341C118.475 202.272 115.942 196.834 112.237 195.685C110.101 195.023 108.326 195.901 106.395 196.738C103.971 197.784 101.558 198.843 99.1397 199.896L103.513 205.563C106.521 203.145 109.529 200.726 112.537 198.302C114.348 196.846 113.68 193.657 111.809 192.635C107.833 190.457 103.742 188.556 99.5428 186.841C95.7888 185.307 93.0515 191.732 96.7634 193.441C105.589 197.508 114.781 200.444 124.365 202.068C128.859 202.826 130.886 196.136 126.284 195.107C124.75 194.764 123.21 194.421 121.676 194.079C121.207 193.976 120.076 193.495 119.63 193.621C118.884 193.333 118.89 193.555 119.642 194.289C120.202 195.444 120.376 195.324 120.172 193.916C120.749 190.661 120.22 186.817 120.238 183.508C120.262 179.797 115.413 178.774 113.512 181.686C111.298 185.073 109.68 188.766 108.657 192.683C107.484 197.183 114.444 199.102 115.618 194.602L115.63 194.608Z" fill="black"/>
<g style="mix-blend-mode:multiply">
<path d="M396.608 425.138L396.686 436.22C396.692 437.28 397.213 438.262 398.078 438.841L407.104 444.876C409.283 446.333 408.821 449.728 406.324 450.619L395.977 454.332C394.988 454.69 394.221 455.509 393.928 456.537L390.898 467.248C390.169 469.83 386.859 470.5 385.298 468.379L378.827 459.593C378.21 458.754 377.215 458.28 376.174 458.338L365.281 458.923C362.653 459.067 361.067 456.082 362.601 453.877L368.949 444.733C369.554 443.855 369.71 442.743 369.352 441.754L365.645 431.408C364.754 428.91 367.082 426.4 369.586 427.154L379.979 430.289C380.974 430.588 382.06 430.367 382.886 429.704L391.49 422.725C393.564 421.041 396.588 422.472 396.608 425.145V425.138Z" fill="#F7CF52"/>
</g>
<g style="mix-blend-mode:multiply">
<path d="M208.296 88.3602L213.161 92.4656C213.626 92.8587 214.248 92.9985 214.824 92.8373L220.829 91.1532C222.278 90.7468 223.587 92.2164 223.043 93.6388L220.798 99.5403C220.585 100.105 220.656 100.746 220.995 101.258L224.536 106.581C225.391 107.863 224.447 109.558 222.939 109.447L216.688 108.988C216.091 108.944 215.512 109.201 215.149 109.677L211.336 114.648C210.417 115.848 208.521 115.426 208.133 113.932L206.514 107.747C206.357 107.156 205.93 106.672 205.365 106.459L199.466 104.211C198.044 103.667 197.818 101.714 199.083 100.903L204.332 97.5397C204.834 97.2173 205.144 96.6608 205.163 96.0527L205.332 89.6921C205.372 88.1577 207.126 87.3727 208.299 88.3626L208.296 88.3602Z" fill="#F7CF52"/>
</g>
<g style="mix-blend-mode:multiply">
<path d="M243.553 572.15L239.744 573.612C239.38 573.75 239.107 574.056 239.024 574.429L238.114 578.322C237.897 579.26 236.665 579.541 236.032 578.799L233.413 575.715C233.162 575.418 232.781 575.263 232.387 575.296L228.302 575.64C227.317 575.724 226.659 574.668 227.187 573.855L229.378 570.486C229.588 570.164 229.621 569.762 229.466 569.41L227.853 565.731C227.464 564.843 228.285 563.913 229.244 564.151L233.216 565.153C233.598 565.249 234 565.153 234.297 564.906L237.385 562.287C238.131 561.654 239.296 562.132 239.363 563.096L239.627 567.084C239.652 567.466 239.87 567.813 240.205 568.01L243.725 570.072C244.575 570.57 244.475 571.798 243.553 572.15Z" fill="#F7CF52"/>
</g>
<g style="mix-blend-mode:multiply">
<path d="M335.519 477.449L329.01 478.568C328.387 478.672 327.858 479.073 327.605 479.641L324.918 485.556C324.272 486.982 322.228 487.038 321.462 485.654L318.295 479.905C317.991 479.351 317.436 478.982 316.801 478.91L310.211 478.157C308.622 477.977 307.917 476.085 309.014 474.957L313.568 470.285C314.004 469.837 314.185 469.207 314.052 468.597L312.67 462.219C312.337 460.679 313.937 459.458 315.382 460.144L321.362 463.005C321.936 463.28 322.605 463.254 323.156 462.955L328.892 459.764C330.277 458.993 331.972 460.125 331.77 461.683L330.913 468.125C330.83 468.741 331.065 469.364 331.533 469.785L336.456 474.191C337.646 475.257 337.094 477.182 335.519 477.449Z" fill="#F7CF52"/>
</g>
<g style="mix-blend-mode:multiply">
<path d="M129.256 249.978C137.935 249.978 147.588 250.915 154.545 255.557C163.965 261.855 167.098 271.754 165.652 282.474C165.179 285.986 166.24 287.334 169.308 288.861C178.838 293.598 183.075 302.142 180.662 310.801C177.791 321.125 171.009 325.964 159.19 325.964C109.121 325.985 59.0458 326.04 8.97747 325.951C-19.3495 325.903 -38.9538 303.394 -32.8988 277.415C-29.4824 262.738 -18.7389 253.661 -4.03389 248.903C-0.290401 247.691 0.938038 246.226 1.2506 242.721C2.89338 224.197 21.7126 212.785 39.7759 220.233C46.8849 223.17 49.0147 220.918 52.2929 215.982C63.458 199.169 87.7943 193.124 105.938 202.236C124.764 211.683 131.103 232.316 129.271 249.971L129.256 249.978Z" fill="#DF7291" fill-opacity="0.8"/>
</g>
</svg>
