<svg width="341" height="614" viewBox="0 0 341 614" fill="none" xmlns="http://www.w3.org/2000/svg">
<path d="M328.378 44L316 63.897L335.897 76.2749L348.275 56.3779L328.378 44Z" fill="#80CEE2"/>
<path d="M300.687 500.716C308.81 499.149 316.439 494.979 322.016 488.846C326.612 483.791 332.803 474.442 326.047 468.489C323.065 465.859 318.804 466.243 316.044 469.016C313.331 471.74 313.018 475.748 313.53 479.357C314.1 483.355 316.184 486.794 319.931 488.505C323.524 490.148 327.65 490.155 331.509 489.799C340.128 489.008 349.229 485.055 353.14 476.873C354.591 473.837 350.122 470.987 348.652 474.064C346.233 479.12 341.575 482.158 336.263 483.599C333.605 484.318 330.87 484.698 328.116 484.694C325.605 484.693 322.58 484.517 320.621 482.736C318.794 481.074 318.372 477.849 318.643 475.509C318.873 473.513 320.995 470.423 322.939 472.831C326.185 476.855 319.657 483.826 317.005 486.426C312.199 491.134 306.163 494.262 299.57 495.533C296.216 496.18 297.352 501.352 300.691 500.707L300.687 500.716Z" fill="black"/>
<path d="M186.897 231.752L186.817 266.242C187.669 273.336 196.058 277.49 205.55 275.522L210.936 274.403C220.431 272.433 227.438 265.087 226.586 257.993L222.397 239.506C209.769 240.765 197.273 238.01 186.897 231.752Z" stroke="black" stroke-width="6.44057" stroke-miterlimit="10"/>
<g style="mix-blend-mode:multiply">
<path d="M249.856 215.031C249.08 196.525 232.467 182.193 212.748 183.019C193.03 183.846 177.674 199.518 178.449 218.024C179.225 236.53 195.838 250.862 215.557 250.036C235.275 249.209 250.631 233.537 249.856 215.031Z" fill="#80D3F1"/>
</g>
<g style="mix-blend-mode:multiply">
<path d="M242.09 125.388C239.293 118.834 231.253 115.984 224.132 119.023C217.011 122.062 213.505 129.838 216.302 136.392C219.099 142.946 227.139 145.796 234.26 142.757C241.381 139.718 244.887 131.942 242.09 125.388Z" fill="#DF7291"/>
</g>
<g style="mix-blend-mode:multiply">
<path d="M167.011 152.566C164.214 146.012 156.174 143.163 149.053 146.201C141.932 149.24 138.426 157.017 141.223 163.571C144.02 170.125 152.06 172.975 159.181 169.936C166.302 166.897 169.808 159.12 167.011 152.566Z" fill="#DF7291"/>
</g>
<path d="M310.826 196.48L277.998 186.47C276.771 197.164 272.388 207.573 265.297 216.34L289.869 229.931C296.668 232.877 306.238 228.787 311.24 220.801L314.076 216.271C319.081 208.283 317.622 199.422 310.824 196.477L310.826 196.48Z" stroke="black" stroke-width="6.44057" stroke-miterlimit="10"/>
<path d="M162.402 179.298L136.665 174.117C129.643 173.465 123.332 179.559 122.573 187.733L122.144 192.368C121.384 200.54 126.466 207.694 133.489 208.345L166.615 208.492C165.87 206.879 165.218 205.243 164.653 203.59C161.959 195.694 161.279 187.399 162.405 179.296L162.402 179.298Z" stroke="black" stroke-width="6.67672" stroke-miterlimit="10"/>
<path d="M241.169 130.412C236.841 145.565 226.445 159.218 211.194 167.528C195.939 175.841 178.831 177.175 163.752 172.598C163.165 174.809 162.719 177.045 162.407 179.298C161.285 187.4 161.959 195.694 164.656 203.593C165.221 205.245 165.873 206.882 166.618 208.494C167.102 209.549 167.627 210.594 168.189 211.63C172.741 219.986 179.304 226.601 187.044 231.272C197.42 237.53 209.913 240.288 222.544 239.026C230.532 238.231 238.57 235.829 246.162 231.694C253.599 227.643 259.866 222.322 264.819 216.2C271.91 207.433 276.296 197.023 277.52 186.331C278.723 175.83 276.886 165.056 271.567 155.298C264.887 143.039 253.885 134.522 241.174 130.413L241.169 130.412Z" stroke="black" stroke-width="5.96826" stroke-miterlimit="10"/>
<path d="M144.316 72.0524C141.593 62.1588 131.221 56.0926 120.657 58.4135C109.755 60.808 102.781 71.2286 105.078 81.6866C107.248 91.5659 116.915 97.9442 127.168 96.6019C130.495 87.1357 136.43 78.6273 144.316 72.0524Z" stroke="black" stroke-width="5.96826" stroke-miterlimit="10"/>
<path d="M233.765 42.6155C229.792 31.9728 217.576 26.6995 206.486 30.8409C195.737 34.855 189.985 46.2283 193.25 56.6156C204.065 57.9333 214.25 62.1052 222.662 68.6276C232.573 63.9232 237.518 52.6722 233.767 42.6185L233.765 42.6155Z" stroke="black" stroke-width="5.96826" stroke-miterlimit="10"/>
<path d="M214.969 65.4755C205.721 60.209 195.047 57.5169 184.153 57.738C174.506 57.9322 164.688 60.4101 155.537 65.3954C146.387 70.3807 138.985 77.2889 133.589 85.2907C127.498 94.3231 123.975 104.751 123.386 115.381C122.823 125.574 124.96 135.955 130.144 145.464C137.536 159.03 149.773 168.353 163.751 172.599C178.831 177.175 195.939 175.842 211.193 167.529C226.447 159.217 236.843 145.564 241.169 130.412C245.183 116.366 243.98 101.03 236.584 87.4629C231.402 77.9523 223.838 70.5322 214.966 65.4776L214.969 65.4755Z" stroke="black" stroke-width="5.96826" stroke-miterlimit="10"/>
<path d="M245.212 120.03C245.212 120.03 270.055 122.822 290.669 117.723C347.271 103.728 359.527 106.939 362.811 113.988C364.027 116.599 364.563 120.189 358.864 123.796C348.759 130.186 313.647 161.986 319.828 170.363C319.828 170.363 266.673 170.048 262.446 165.558" stroke="black" stroke-width="5.521" stroke-linecap="round" stroke-linejoin="round"/>
<path d="M169.198 143.136C174.583 146.009 180.353 139.326 179.13 134.176" stroke="black" stroke-width="5.19181" stroke-miterlimit="10" stroke-linecap="round"/>
<path d="M192.03 137.708C188.515 142.697 180.351 139.323 179.13 134.176" stroke="black" stroke-width="5.19181" stroke-miterlimit="10" stroke-linecap="round"/>
<path d="M147.286 147.687L160.739 140.005L146.684 133.289" stroke="black" stroke-width="5.00933" stroke-linecap="round" stroke-linejoin="round"/>
<path d="M242.308 131.581C260.389 131.775 270.146 137.289 274.282 141.624C280.147 147.77 284.211 167.486 263.185 176.793C252.183 181.665 247.605 183.205 243.378 176.907C236.072 166.017 244.091 159.403 253.676 159.545" fill="white"/>
<path d="M242.308 131.581C260.389 131.775 270.146 137.289 274.282 141.624C280.147 147.77 284.211 167.486 263.185 176.793C252.183 181.665 247.605 183.205 243.378 176.907C236.072 166.017 244.091 159.403 253.676 159.545" stroke="black" stroke-width="5.96826" stroke-miterlimit="10" stroke-linecap="round"/>
<path d="M211.932 116.303L199.709 127.905L216.299 131.361" stroke="black" stroke-width="4.79464" stroke-linecap="round" stroke-linejoin="round"/>
<path d="M188.431 240.813C197.948 244.464 208.072 246.094 218.258 245.535C221.024 245.384 220.736 241.099 217.978 241.249C208.553 241.765 199.109 240.323 190.292 236.941C187.733 235.959 185.847 239.821 188.436 240.814L188.431 240.813Z" fill="black"/>
<path d="M271.476 218.753C275.986 215.79 277.886 209.298 279.244 204.35C280.68 199.121 281.224 193.665 280.977 188.252C280.85 185.483 276.565 185.775 276.692 188.532C276.906 193.211 276.453 197.858 275.323 202.409C274.758 204.683 274.018 206.898 273.111 209.058C272.204 211.217 271.179 213.81 269.071 215.196C266.763 216.713 269.165 220.273 271.476 218.753Z" fill="black"/>
<path d="M271.121 216.489C272.919 214.094 274.607 211.627 276.209 209.097C277.684 206.769 273.804 204.927 272.336 207.24C270.869 209.554 269.429 211.603 267.854 213.7C266.203 215.896 269.452 218.709 271.118 216.491L271.121 216.489Z" fill="black"/>
<path d="M211.864 273.862C216.975 270.817 221.975 267.066 224.707 261.625C225.875 259.303 226.575 256.748 226.672 254.151C226.764 251.705 226.53 248.58 224.252 247.21C221.886 245.786 220.041 249.663 222.395 251.082C221.687 250.654 222.148 251.202 222.254 251.8C222.33 252.232 222.363 252.676 222.386 253.114C222.435 254.087 222.349 255.039 222.16 255.992C221.781 257.911 220.986 259.757 219.913 261.389C217.363 265.277 213.38 267.965 209.459 270.305C207.082 271.722 209.496 275.273 211.864 273.862Z" fill="black"/>
<path d="M278.502 202.114C289.993 193.365 304.86 199.584 316.417 204.732C318.934 205.855 320.808 201.989 318.274 200.86C305.301 195.079 288.905 188.81 276.097 198.557C273.907 200.223 276.296 203.79 278.502 202.114Z" fill="black"/>
<path d="M282.771 196.455C284.703 194.937 286.769 193.809 289.105 193.041C291.076 192.391 290.99 189.193 288.826 188.898C285.893 188.501 282.949 188.202 279.994 187.997C278.829 187.916 277.731 188.464 277.477 189.698C277.265 190.727 278.024 192.136 279.178 192.215C282.134 192.415 285.076 192.716 288.011 193.116C287.919 191.735 287.823 190.353 287.732 188.972C285.06 189.85 282.578 191.161 280.366 192.898C278.205 194.596 280.594 198.168 282.771 196.455Z" fill="black"/>
<path d="M141.763 209.45C146.17 209.555 150.751 209.616 154.915 207.962C156.788 207.219 158.523 206.188 160 204.814C161.593 203.331 162.464 201.516 163.575 199.689L159.86 199.963C160.45 201.085 160.828 202.328 160.943 203.59C161.01 204.334 160.579 205.23 161.47 204.593C162.463 203.883 160.988 204.047 160.346 203.742L161.45 204.992C160.85 206.161 160.878 206.523 161.531 206.077C161.821 205.924 162.079 205.724 162.303 205.481C162.772 205.005 162.949 204.513 163.138 203.885C163.935 201.238 159.711 200.445 158.92 203.07C159.168 202.249 158.945 202.539 158.43 202.934C158.045 203.233 157.664 203.659 157.443 204.098C157.082 204.817 157.058 205.637 157.373 206.365C158.075 207.986 161.12 208.886 162.765 208.49C167.311 207.395 164.778 200.172 163.404 197.559C162.568 195.969 160.434 196.608 159.69 197.833C158.832 199.242 158.176 200.692 156.927 201.821C155.678 202.951 154.031 203.779 152.375 204.307C148.876 205.411 145.09 205.254 141.468 205.167C138.703 205.101 139.008 209.387 141.748 209.452L141.763 209.45Z" fill="black"/>
<path d="M238.972 141.602C241.593 139.657 244.246 137.661 247.465 136.85C250.461 136.094 253.657 136.292 256.715 136.427C259.478 136.546 259.167 132.26 256.435 132.142C252.965 131.991 249.487 131.907 246.092 132.781C242.525 133.702 239.48 135.881 236.568 138.044C234.356 139.686 236.749 143.251 238.972 141.602Z" fill="black"/>
<path d="M242.113 135.47C244.402 133.923 242 130.364 239.709 131.913C237.417 133.462 239.822 137.019 242.113 135.47Z" fill="black"/>
<path d="M262.774 179.857C268.91 178.093 274.292 175.167 278.918 170.74C280.91 168.832 277.639 166.05 275.654 167.949C271.597 171.832 266.757 174.249 261.401 175.788C258.74 176.554 260.124 180.62 262.774 179.857Z" fill="black"/>
<path d="M211.926 64.2811C223.119 69.7535 234.245 58.7336 236.054 48.1855C236.522 45.4594 232.307 44.642 231.836 47.3702C230.506 55.1324 222.435 64.6401 213.777 60.4077C211.295 59.1961 209.43 63.0617 211.921 64.2801L211.926 64.2811Z" fill="black"/>
<path d="M225.108 66.1059L226.379 65.2462C227.31 64.617 227.649 63.1957 226.956 62.2653C226.262 61.3349 224.971 61.0158 223.975 61.6891L222.703 62.5488C221.772 63.178 221.433 64.5993 222.127 65.5297C222.821 66.4601 224.112 66.7792 225.108 66.1059Z" fill="black"/>
<path d="M135.698 64.0185C139.175 68.1334 140.506 74.1269 136.072 78.0964C135.2 78.8761 135.519 80.4351 136.309 81.1237C137.277 81.9679 138.479 81.6565 139.336 80.8868C145.083 75.7408 143.84 67.0405 139.255 61.6138C137.489 59.5253 133.913 61.9083 135.698 64.0185Z" fill="black"/>
<path d="M145.11 71.2569C147.398 69.7099 144.996 66.1507 142.705 67.6998C140.413 69.2488 142.818 72.806 145.11 71.2569Z" fill="black"/>
<path d="M243.45 132.636C243.721 129.645 245.092 126.901 247.498 125.049C250.317 122.88 253.808 122.973 257.128 122.184C259.818 121.545 258.421 117.479 255.755 118.116C253.519 118.647 251.184 118.701 248.994 119.429C247.256 120.008 245.653 120.971 244.277 122.169C241.451 124.633 239.573 128.07 239.234 131.824C238.984 134.554 243.2 135.392 243.452 132.639L243.45 132.636Z" fill="black"/>
<path d="M320.244 167.192C318.626 162.083 324.56 156.474 327.646 153.187C332.459 148.059 338.118 143.888 343.633 139.563C345.796 137.868 343.409 134.299 341.229 136.006C334.879 140.981 328.416 145.816 323.03 151.872C319.066 156.326 314.143 162.16 316.173 168.562C317.011 171.2 321.076 169.821 320.242 167.189L320.244 167.192Z" fill="black"/>
<path d="M296.311 134.562C299.792 133.552 303.224 132.407 306.603 131.099C309.889 129.827 313.08 128.228 316.445 127.175C322.369 125.326 328.918 125.226 334.62 127.854C337.126 129.011 338.997 125.141 336.477 123.981C330.245 121.107 323.222 120.953 316.641 122.654C313.09 123.573 309.793 125.219 306.394 126.567C302.637 128.057 298.819 129.36 294.939 130.488C292.278 131.26 293.666 135.327 296.312 134.557L296.311 134.562Z" fill="black"/>
<path d="M280.597 137.722C282.858 137.93 285.109 137.937 287.363 137.661C290.1 137.327 289.828 133.041 287.083 133.376C285.201 133.608 283.301 133.678 281.411 133.509C280.256 133.404 279.133 133.991 278.895 135.21C278.691 136.263 279.434 137.618 280.596 137.727L280.597 137.722Z" fill="black"/>
<path d="M216.993 167.292C222.815 163.274 228.654 159.184 233.617 154.106C238.58 149.028 242.128 143.096 244.058 136.315C244.815 133.653 240.593 132.857 239.84 135.5C236.145 148.493 225.174 156.432 214.588 163.735C212.314 165.303 214.713 168.864 216.993 167.292Z" fill="black"/>
<path d="M271.82 176.705C275.652 183.413 274.8 191.469 274.002 198.824C273.706 201.555 277.921 202.39 278.22 199.639C279.154 191.022 279.846 182.124 275.377 174.3C274.006 171.901 270.455 174.315 271.82 176.705Z" fill="black"/>
<g style="mix-blend-mode:multiply">
<path d="M197.748 554.407C141.955 554.407 86.1613 554.245 30.3752 554.599C22.9223 554.643 19.5199 551.756 17.7672 545.297C14.026 531.467 15.8377 519.006 26.9507 508.99C37.5187 499.468 49.5597 496.493 62.9852 502.016C66.9178 503.636 69.0167 503.754 71.3439 499.402C76.4917 489.769 84.5411 483.502 95.6467 481.815C99.3437 481.256 101.17 479.709 101.583 475.452C104.469 445.958 131.725 423.975 160.911 428.622C183.299 432.186 202.211 448.285 206.195 474.937C206.792 478.943 207.985 480.423 212.013 481.108C229.695 484.12 240.477 494.644 244.741 512.091C247.9 525.015 241.523 543.147 230.469 550.563C228.09 552.161 224.791 552.971 221.874 553.089C213.471 554.591 205.798 554.392 197.756 554.392C197.756 553.995 197.756 554.79 197.756 554.392L197.748 554.407Z" fill="#80D3F1"/>
</g>
<path d="M189.83 434.471C190.706 431.143 192.039 428.175 193.91 425.288L187.252 423.483C187.238 426.105 187.216 428.727 187.201 431.349C187.186 433.182 186.884 435.318 187.547 437.086C189.02 441.011 195.059 441.085 198.491 441.851L200.391 434.957C191.539 433.448 182.944 430.892 174.777 427.144L172.023 433.676C175.602 435.141 179.063 436.843 182.458 438.691L181.736 433.079C178.761 435.473 175.778 437.866 172.803 440.267C169.371 443.029 173.753 447.344 177.134 445.879C178.305 445.371 179.483 444.855 180.654 444.347C181.434 444.008 182.215 443.67 183.003 443.323C184.041 443.338 184.388 443.058 184.056 442.484C183.769 441.792 183.968 442.005 184.66 443.11C185.058 443.655 185.441 444.2 185.816 444.76C186.707 446.056 187.547 447.374 188.372 448.707C190.102 451.498 195.39 450.622 195.029 446.903C194.639 442.837 193.88 438.861 192.422 435.038C191.502 432.623 190.287 431.724 188.202 430.428C184.284 427.991 180.698 434.169 184.594 436.6L186.707 437.918L185.065 435.782C186.509 439.369 187.51 443.051 187.886 446.903L194.543 445.098C192.658 442.057 190.051 436.276 186.155 435.399C182.296 434.53 176.935 438.22 173.532 439.7C174.976 441.571 176.419 443.441 177.863 445.312C180.838 442.918 183.821 440.525 186.796 438.124C188.585 436.688 187.93 433.529 186.074 432.512C182.134 430.362 178.084 428.484 173.93 426.775C170.218 425.251 167.501 431.621 171.176 433.308C179.917 437.321 189.005 440.23 198.498 441.843C202.946 442.602 204.949 435.966 200.398 434.95C198.785 434.589 196.355 433.543 194.72 433.683L193.299 433.367C194.249 435.421 194.595 435.458 194.344 433.492C194.875 430.332 194.389 426.672 194.411 423.476C194.433 419.809 189.631 418.778 187.753 421.672C185.566 425.045 183.975 428.675 182.952 432.557C181.773 437.005 188.666 438.905 189.845 434.457L189.83 434.471Z" fill="black"/>
<path d="M114.073 590.608C114.945 587.245 116.299 584.237 118.2 581.331L111.474 579.508C111.456 582.011 111.444 584.52 111.426 587.022C111.414 589.008 111.053 591.348 111.769 593.249C113.249 597.171 119.349 597.286 122.82 598.062L124.739 591.101C115.8 589.591 107.1 586.998 98.8585 583.202L96.0791 589.802C99.6947 591.282 103.196 592.996 106.619 594.867L105.891 589.2C102.883 591.619 99.8752 594.037 96.8672 596.462C93.3959 599.253 97.8298 603.615 101.241 602.129C102.625 601.527 104.008 600.925 105.386 600.324C105.663 600.204 109.621 598.73 108.099 598.363C108.761 598.519 110 600.986 110.385 601.557C111.143 602.682 111.871 603.831 112.581 604.986C114.326 607.82 119.662 606.917 119.307 603.163C118.928 599.163 118.194 595.246 116.78 591.474C115.8 588.863 114.657 587.925 112.407 586.523C108.448 584.063 104.82 590.307 108.761 592.756L110.897 594.085L109.236 591.925C110.704 595.541 111.715 599.271 112.082 603.163C114.326 602.556 116.564 601.948 118.808 601.341C116.919 598.272 114.386 592.834 110.68 591.685C108.544 591.023 106.77 591.901 104.838 592.738C102.414 593.784 100.002 594.843 97.5831 595.896L101.957 601.563C104.965 599.145 107.973 596.726 110.981 594.302C112.792 592.846 112.124 589.657 110.253 588.635C106.276 586.457 102.185 584.556 97.9862 582.841C94.2322 581.307 91.4949 587.732 95.2068 589.441C104.032 593.508 113.225 596.444 122.808 598.068C127.302 598.826 129.33 592.136 124.727 591.107C123.193 590.764 121.653 590.421 120.119 590.079C119.65 589.976 118.519 589.495 118.074 589.621C117.328 589.333 117.334 589.555 118.086 590.289C118.645 591.444 118.82 591.324 118.615 589.916C119.193 586.661 118.663 582.817 118.681 579.508C118.705 575.797 113.856 574.774 111.955 577.686C109.741 581.073 108.123 584.766 107.1 588.683C105.927 593.183 112.888 595.102 114.061 590.602L114.073 590.608Z" fill="black"/>
<path d="M39.7828 90.7094C40.5499 89.3559 41.484 88.2117 42.643 87.1752L39.9451 85.6072C39.6472 86.6876 39.3513 87.7713 39.0534 88.8517C38.8181 89.7091 38.3907 90.6795 38.4801 91.5847C38.6656 93.4528 41.2909 94.2093 42.7024 94.9473L44.3392 92.159C40.6474 90.4698 37.1852 88.34 34.0603 85.7428L32.0932 88.2753C33.4856 89.3344 34.8013 90.4819 36.0651 91.6879L36.407 89.1523C34.8257 89.8497 33.2443 90.5472 31.6622 91.2472C29.8373 92.0523 31.2495 94.4527 32.8972 94.2053C33.5654 94.1055 34.2336 94.0056 34.8992 93.9051C35.0329 93.8851 36.9159 93.7064 36.3001 93.3712C36.5682 93.5156 36.8184 94.7261 36.9187 95.0179C37.1162 95.5924 37.2979 96.1738 37.471 96.7556C37.8973 98.1835 40.31 98.4116 40.5915 96.7467C40.8912 94.9724 41.0277 93.1933 40.8533 91.3979C40.7318 90.1549 40.3462 89.6165 39.5354 88.7494C38.1084 87.2264 35.8155 89.507 37.2362 91.0227L38.0058 91.8453L37.538 90.7187C37.7538 92.4527 37.7587 94.1832 37.4663 95.9093C38.5073 95.9066 39.5458 95.9031 40.5868 95.9004C40.1253 94.3544 39.6601 91.7085 38.1904 90.782C37.3433 90.2482 36.4739 90.4224 35.5417 90.5603C34.3717 90.7321 33.2055 90.9105 32.0374 91.0856L33.2724 94.0437C34.8537 93.3462 36.4351 92.6488 38.0172 91.9488C38.9692 91.5289 39.0499 90.0724 38.3591 89.4132C36.8915 88.0103 35.3424 86.7139 33.7248 85.4856C32.2788 84.387 30.3502 86.8488 31.7577 88.018C35.1037 90.8 38.7396 93.1352 42.6965 94.9485C44.5525 95.7972 46.2047 93.1386 44.3333 92.1602C43.7095 91.8341 43.0831 91.5073 42.4593 91.1812C42.2682 91.0825 41.8348 90.7433 41.6276 90.7463C41.3384 90.535 41.3152 90.6319 41.5554 91.0366C41.6635 91.601 41.7529 91.5692 41.8276 90.9366C42.4546 89.5958 42.6712 87.8716 43.0625 86.4425C43.5031 84.8398 41.5243 83.8355 40.3645 84.8746C39.0144 86.083 37.8863 87.4932 36.99 89.0686C35.9611 90.8791 38.7493 92.5159 39.7783 90.7054L39.7828 90.7094Z" fill="black"/>
<g style="mix-blend-mode:multiply">
<path d="M336.853 528.12C346.545 528.12 357.324 529.169 365.093 534.359C375.612 541.401 379.111 552.47 377.496 564.457C376.968 568.384 378.153 569.892 381.578 571.599C392.22 576.896 396.952 586.449 394.257 596.132C391.051 607.675 383.478 613.087 370.279 613.087C314.369 613.11 258.45 613.171 202.539 613.072C170.907 613.018 149.015 587.85 155.777 558.8C159.592 542.389 171.589 532.238 188.01 526.918C192.19 525.564 193.562 523.925 193.911 520.006C195.745 499.293 216.76 486.532 236.931 494.861C244.87 498.145 247.248 495.626 250.909 490.107C263.377 471.307 290.553 464.548 310.813 474.737C331.837 485.3 338.915 508.371 336.869 528.113L336.853 528.12Z" fill="#F7CF52"/>
</g>
<g style="mix-blend-mode:multiply">
<path d="M16.5528 128.15L12.7442 129.612C12.3797 129.75 12.1073 130.056 12.0235 130.429L11.1144 134.322C10.8965 135.26 9.66464 135.541 9.03197 134.799L6.41329 131.715C6.1619 131.418 5.78064 131.263 5.38679 131.296L1.30166 131.64C0.317035 131.724 -0.34079 130.668 0.187135 129.855L2.37843 126.486C2.58793 126.164 2.62148 125.762 2.46646 125.41L0.853311 121.731C0.463652 120.843 1.2849 119.913 2.24438 120.151L6.21638 121.153C6.59766 121.249 6.99987 121.153 7.29735 120.906L10.3853 118.287C11.1311 117.654 12.2959 118.132 12.363 119.096L12.6269 123.084C12.6521 123.466 12.8699 123.813 13.2051 124.01L16.7246 126.072C17.5751 126.57 17.4746 127.798 16.5528 128.15Z" fill="#F7CF52"/>
</g>
<g style="mix-blend-mode:multiply">
<path d="M73.3905 456.278L70.7425 459.382C70.4883 459.677 70.3951 460.076 70.4995 460.444L71.5596 464.298C71.8164 465.226 70.8681 466.061 69.9581 465.712L66.1846 464.253C65.8217 464.112 65.4127 464.157 65.0827 464.375L61.6575 466.628C60.8325 467.172 59.7503 466.558 59.8259 465.592L60.1425 461.586C60.1725 461.202 60.0099 460.833 59.7056 460.597L56.5315 458.136C55.7649 457.541 56.0423 456.332 56.9993 456.084L60.9673 455.067C61.3484 454.969 61.6557 454.692 61.799 454.333L63.2615 450.558C63.6147 449.646 64.8662 449.509 65.3853 450.324L67.5221 453.702C67.7262 454.025 68.0837 454.227 68.4723 454.24L72.5489 454.37C73.5343 454.402 74.0323 455.529 73.3905 456.278Z" fill="#F7CF52"/>
</g>
<g style="mix-blend-mode:multiply">
<path d="M42.2783 451.212L36.662 453.599C36.1244 453.825 35.7334 454.296 35.6278 454.858L34.4736 460.724C34.1973 462.139 32.3707 462.623 31.3859 461.548L27.309 457.076C26.9176 456.645 26.3395 456.433 25.7525 456.504L19.6639 457.232C18.1965 457.41 17.1575 455.866 17.9039 454.623L21.0022 449.472C21.2984 448.979 21.3274 448.376 21.0771 447.858L18.472 442.444C17.8428 441.136 19.0214 439.703 20.4683 440.009L26.4585 441.297C27.0336 441.421 27.6297 441.256 28.0614 440.87L32.5395 436.793C33.6211 435.808 35.3875 436.461 35.5384 437.898L36.143 443.847C36.2007 444.415 36.5447 444.924 37.0561 445.2L42.4257 448.097C43.7234 448.797 43.6377 450.638 42.2783 451.212Z" fill="#F7CF52"/>
</g>
<g style="mix-blend-mode:multiply">
<path d="M268.598 346.464C268.598 346.464 299.142 370.53 307.758 330C307.758 330 299.168 366.183 326.231 359.509C326.231 359.509 300.502 382.725 338.235 391.222C338.235 391.222 309.37 380.484 308.191 404.148C308.191 404.148 299.395 373.527 278.306 417.641C278.306 417.641 294.003 372.929 264.762 380.098C264.762 380.098 302.438 376.643 268.604 346.464H268.598Z" fill="#F7CF52"/>
<path d="M268.598 346.464C268.598 346.464 299.142 370.53 307.758 330C307.758 330 299.168 366.183 326.231 359.509C326.231 359.509 300.502 382.725 338.235 391.222C338.235 391.222 309.37 380.484 308.191 404.148C308.191 404.148 299.395 373.527 278.306 417.641C278.306 417.641 294.003 372.929 264.762 380.098C264.762 380.098 302.438 376.643 268.604 346.464H268.598Z" stroke="#F7CF52" stroke-width="7.52399" stroke-linecap="round" stroke-linejoin="round"/>
</g>
<g style="mix-blend-mode:multiply">
<path d="M321 374C351.376 374 376 349.376 376 319C376 288.624 351.376 264 321 264C290.624 264 266 288.624 266 319C266 349.376 290.624 374 321 374Z" fill="#DF7291"/>
</g>
<path d="M260.6 339.316C260.6 339.316 295.429 363.84 302.464 319C302.464 319 295.197 359.087 324.408 350.188C324.408 350.188 297.628 377.101 339.409 384.172C339.409 384.172 307.202 374.13 307.305 400.085C307.305 400.085 295.882 367.11 275.412 416.606C275.412 416.606 289.95 366.77 258.381 376.339C258.381 376.339 299.389 370.339 260.6 339.321V339.316Z" stroke="black" stroke-width="6.68455" stroke-linecap="round" stroke-linejoin="round"/>
<path d="M249.302 378L235.979 380.194" stroke="black" stroke-width="6.68455" stroke-linecap="round" stroke-linejoin="round"/>
<path d="M225.107 382L224 382.355" stroke="black" stroke-width="6.68455" stroke-linecap="round" stroke-linejoin="round"/>
<path d="M252.666 333.418L241.352 323" stroke="black" stroke-width="6.68455" stroke-linecap="round" stroke-linejoin="round"/>
</svg>
