<svg width="341" height="570" viewBox="0 0 341 570" fill="none" xmlns="http://www.w3.org/2000/svg">
<path d="M328.378 -1.85592e-06L316 19.897L335.897 32.2749L348.275 12.3779L328.378 -1.85592e-06Z" fill="#80CEE2"/>
<path d="M300.687 456.716C308.81 455.149 316.439 450.979 322.016 444.846C326.612 439.791 332.803 430.442 326.047 424.489C323.065 421.859 318.804 422.243 316.044 425.016C313.331 427.74 313.018 431.748 313.53 435.357C314.1 439.355 316.184 442.794 319.931 444.505C323.524 446.148 327.65 446.155 331.509 445.799C340.128 445.008 349.229 441.055 353.14 432.873C354.591 429.837 350.122 426.987 348.652 430.064C346.233 435.12 341.575 438.158 336.263 439.599C333.605 440.318 330.87 440.698 328.116 440.694C325.605 440.693 322.58 440.517 320.621 438.736C318.794 437.074 318.372 433.849 318.643 431.509C318.873 429.513 320.995 426.423 322.939 428.831C326.185 432.855 319.657 439.826 317.005 442.426C312.199 447.134 306.163 450.262 299.57 451.533C296.216 452.18 297.352 457.352 300.691 456.707L300.687 456.716Z" fill="black"/>
<g style="mix-blend-mode:multiply">
<path d="M197.748 510.407C141.955 510.407 86.1613 510.245 30.3752 510.599C22.9223 510.643 19.5199 507.756 17.7672 501.297C14.026 487.467 15.8377 475.006 26.9507 464.99C37.5187 455.468 49.5597 452.493 62.9852 458.016C66.9178 459.636 69.0167 459.754 71.3439 455.402C76.4917 445.769 84.5411 439.502 95.6467 437.815C99.3437 437.256 101.17 435.709 101.583 431.452C104.469 401.958 131.725 379.975 160.911 384.622C183.299 388.186 202.211 404.285 206.195 430.937C206.792 434.943 207.985 436.423 212.013 437.108C229.695 440.12 240.477 450.644 244.741 468.091C247.9 481.015 241.523 499.147 230.469 506.563C228.09 508.161 224.791 508.971 221.874 509.089C213.471 510.591 205.798 510.392 197.756 510.392C197.756 509.995 197.756 510.79 197.756 510.392L197.748 510.407Z" fill="#80D3F1"/>
</g>
<path d="M189.83 390.471C190.706 387.143 192.039 384.175 193.91 381.288L187.252 379.483C187.238 382.105 187.216 384.727 187.201 387.349C187.186 389.182 186.884 391.318 187.547 393.086C189.02 397.011 195.059 397.085 198.491 397.851L200.391 390.957C191.539 389.448 182.944 386.892 174.777 383.144L172.023 389.676C175.602 391.141 179.063 392.843 182.458 394.691L181.736 389.079C178.761 391.473 175.778 393.866 172.803 396.267C169.371 399.029 173.753 403.344 177.134 401.879C178.305 401.371 179.483 400.855 180.654 400.347C181.434 400.008 182.215 399.67 183.003 399.323C184.041 399.338 184.388 399.058 184.056 398.484C183.769 397.792 183.968 398.005 184.66 399.11C185.058 399.655 185.441 400.2 185.816 400.76C186.707 402.056 187.547 403.374 188.372 404.707C190.102 407.498 195.39 406.622 195.029 402.903C194.639 398.837 193.88 394.861 192.422 391.038C191.502 388.623 190.287 387.724 188.202 386.428C184.284 383.991 180.698 390.169 184.594 392.6L186.707 393.918L185.065 391.782C186.509 395.369 187.51 399.051 187.886 402.903L194.543 401.098C192.658 398.057 190.051 392.276 186.155 391.399C182.296 390.53 176.935 394.22 173.532 395.7C174.976 397.571 176.419 399.441 177.863 401.312C180.838 398.918 183.821 396.525 186.796 394.124C188.585 392.688 187.93 389.529 186.074 388.512C182.134 386.362 178.084 384.484 173.93 382.775C170.218 381.251 167.501 387.621 171.176 389.308C179.917 393.321 189.005 396.23 198.498 397.843C202.946 398.602 204.949 391.966 200.398 390.95C198.785 390.589 196.355 389.543 194.72 389.683L193.299 389.367C194.249 391.421 194.595 391.458 194.344 389.492C194.875 386.332 194.389 382.672 194.411 379.476C194.433 375.809 189.631 374.778 187.753 377.672C185.566 381.045 183.975 384.675 182.952 388.557C181.773 393.005 188.666 394.905 189.845 390.457L189.83 390.471Z" fill="black"/>
<path d="M114.073 546.608C114.945 543.245 116.299 540.237 118.2 537.331L111.474 535.508C111.456 538.011 111.444 540.52 111.426 543.022C111.414 545.008 111.053 547.348 111.769 549.249C113.249 553.171 119.349 553.286 122.82 554.062L124.739 547.101C115.8 545.591 107.1 542.998 98.8585 539.202L96.0791 545.802C99.6947 547.282 103.196 548.996 106.619 550.867L105.891 545.2C102.883 547.619 99.8752 550.037 96.8672 552.462C93.3959 555.253 97.8298 559.615 101.241 558.129C102.625 557.527 104.008 556.925 105.386 556.324C105.663 556.204 109.621 554.73 108.099 554.363C108.761 554.519 110 556.986 110.385 557.557C111.143 558.682 111.871 559.831 112.581 560.986C114.326 563.82 119.662 562.917 119.307 559.163C118.928 555.163 118.194 551.246 116.78 547.474C115.8 544.863 114.657 543.925 112.407 542.523C108.448 540.063 104.82 546.307 108.761 548.756L110.897 550.085L109.236 547.925C110.704 551.541 111.715 555.271 112.082 559.163C114.326 558.556 116.564 557.948 118.808 557.341C116.919 554.272 114.386 548.834 110.68 547.685C108.544 547.023 106.77 547.901 104.838 548.738C102.414 549.784 100.002 550.843 97.5831 551.896L101.957 557.563C104.965 555.145 107.973 552.726 110.981 550.302C112.792 548.846 112.124 545.657 110.253 544.635C106.276 542.457 102.185 540.556 97.9862 538.841C94.2322 537.307 91.4949 543.732 95.2068 545.441C104.032 549.508 113.225 552.444 122.808 554.068C127.302 554.826 129.33 548.136 124.727 547.107C123.193 546.764 121.653 546.421 120.119 546.079C119.65 545.976 118.519 545.495 118.074 545.621C117.328 545.333 117.334 545.555 118.086 546.289C118.645 547.444 118.82 547.324 118.615 545.916C119.193 542.661 118.663 538.817 118.681 535.508C118.705 531.797 113.856 530.774 111.955 533.686C109.741 537.073 108.123 540.766 107.1 544.683C105.927 549.183 112.888 551.102 114.061 546.602L114.073 546.608Z" fill="black"/>
<path d="M39.7828 46.7094C40.5499 45.3559 41.484 44.2117 42.643 43.1752L39.9451 41.6072C39.6472 42.6876 39.3513 43.7713 39.0534 44.8517C38.8181 45.7091 38.3907 46.6795 38.4801 47.5847C38.6656 49.4528 41.2909 50.2093 42.7024 50.9473L44.3392 48.159C40.6474 46.4698 37.1852 44.34 34.0603 41.7428L32.0932 44.2753C33.4856 45.3344 34.8013 46.4819 36.0651 47.6879L36.407 45.1523C34.8257 45.8497 33.2443 46.5472 31.6622 47.2472C29.8373 48.0523 31.2495 50.4527 32.8972 50.2053C33.5654 50.1055 34.2336 50.0056 34.8992 49.9051C35.0329 49.8851 36.9159 49.7064 36.3001 49.3712C36.5682 49.5156 36.8184 50.7261 36.9187 51.0179C37.1162 51.5924 37.2979 52.1738 37.471 52.7556C37.8973 54.1835 40.31 54.4116 40.5915 52.7467C40.8912 50.9724 41.0277 49.1933 40.8533 47.3979C40.7318 46.1549 40.3462 45.6165 39.5354 44.7494C38.1084 43.2264 35.8155 45.507 37.2362 47.0227L38.0058 47.8453L37.538 46.7187C37.7538 48.4527 37.7587 50.1832 37.4663 51.9093C38.5073 51.9066 39.5458 51.9031 40.5868 51.9004C40.1253 50.3544 39.6601 47.7085 38.1904 46.782C37.3433 46.2482 36.4739 46.4224 35.5417 46.5603C34.3717 46.7321 33.2055 46.9105 32.0374 47.0856L33.2724 50.0437C34.8537 49.3462 36.4351 48.6488 38.0172 47.9488C38.9692 47.5289 39.0499 46.0724 38.3591 45.4132C36.8915 44.0103 35.3424 42.7139 33.7248 41.4856C32.2788 40.387 30.3502 42.8488 31.7577 44.018C35.1037 46.8 38.7396 49.1352 42.6965 50.9485C44.5525 51.7972 46.2047 49.1386 44.3333 48.1602C43.7095 47.8341 43.0831 47.5073 42.4593 47.1812C42.2682 47.0825 41.8348 46.7433 41.6276 46.7463C41.3384 46.535 41.3152 46.6319 41.5554 47.0366C41.6635 47.601 41.7529 47.5692 41.8276 46.9366C42.4546 45.5958 42.6712 43.8716 43.0625 42.4425C43.5031 40.8398 41.5243 39.8355 40.3645 40.8746C39.0144 42.083 37.8863 43.4932 36.99 45.0686C35.9611 46.8791 38.7493 48.5159 39.7783 46.7054L39.7828 46.7094Z" fill="black"/>
<g style="mix-blend-mode:multiply">
<path d="M336.853 484.12C346.545 484.12 357.324 485.169 365.093 490.359C375.612 497.401 379.111 508.47 377.496 520.457C376.968 524.384 378.153 525.892 381.578 527.599C392.22 532.896 396.952 542.449 394.257 552.132C391.051 563.675 383.478 569.087 370.279 569.087C314.369 569.11 258.45 569.171 202.539 569.072C170.907 569.018 149.015 543.85 155.777 514.8C159.592 498.389 171.589 488.238 188.01 482.918C192.19 481.564 193.562 479.925 193.911 476.006C195.745 455.293 216.76 442.532 236.931 450.861C244.87 454.145 247.248 451.626 250.909 446.107C263.377 427.307 290.553 420.548 310.813 430.737C331.837 441.3 338.915 464.371 336.869 484.113L336.853 484.12Z" fill="#F7CF52"/>
</g>
<g style="mix-blend-mode:multiply">
<path d="M16.5528 84.1499L12.7442 85.6121C12.3797 85.7504 12.1073 86.0563 12.0235 86.4292L11.1144 90.3216C10.8965 91.2601 9.66464 91.5408 9.03197 90.7992L6.41329 87.7155C6.1619 87.418 5.78064 87.2629 5.38679 87.2965L1.30166 87.64C0.317035 87.7238 -0.34079 86.668 0.187135 85.8551L2.37843 82.4865C2.58793 82.1639 2.62148 81.7616 2.46646 81.4097L0.853311 77.731C0.463652 76.8427 1.2849 75.9126 2.24438 76.1514L6.21638 77.1528C6.59766 77.2491 6.99987 77.1528 7.29735 76.9056L10.3853 74.2869C11.1311 73.6542 12.2959 74.1319 12.363 75.0955L12.6269 79.0843C12.6521 79.4656 12.8699 79.8133 13.2051 80.0103L16.7246 82.0717C17.5751 82.5703 17.4746 83.7979 16.5528 84.1499Z" fill="#F7CF52"/>
</g>
<g style="mix-blend-mode:multiply">
<path d="M73.3905 412.278L70.7425 415.382C70.4883 415.677 70.3951 416.076 70.4995 416.444L71.5596 420.298C71.8164 421.226 70.8681 422.061 69.9581 421.712L66.1846 420.253C65.8217 420.112 65.4127 420.157 65.0827 420.375L61.6575 422.628C60.8325 423.172 59.7503 422.558 59.8259 421.592L60.1425 417.586C60.1725 417.202 60.0099 416.833 59.7056 416.597L56.5315 414.136C55.7649 413.541 56.0423 412.332 56.9993 412.084L60.9673 411.067C61.3484 410.969 61.6557 410.692 61.799 410.333L63.2615 406.558C63.6147 405.646 64.8662 405.509 65.3853 406.324L67.5221 409.702C67.7262 410.025 68.0837 410.227 68.4723 410.24L72.5489 410.37C73.5343 410.402 74.0323 411.529 73.3905 412.278Z" fill="#F7CF52"/>
</g>
<g style="mix-blend-mode:multiply">
<path d="M42.2783 407.212L36.662 409.599C36.1244 409.825 35.7334 410.296 35.6278 410.858L34.4736 416.724C34.1973 418.139 32.3707 418.623 31.3859 417.548L27.309 413.076C26.9176 412.645 26.3395 412.433 25.7525 412.504L19.6639 413.232C18.1965 413.41 17.1575 411.866 17.9039 410.623L21.0022 405.472C21.2984 404.979 21.3274 404.376 21.0771 403.858L18.472 398.444C17.8428 397.136 19.0214 395.703 20.4683 396.009L26.4585 397.297C27.0336 397.421 27.6297 397.256 28.0614 396.87L32.5395 392.793C33.6211 391.808 35.3875 392.461 35.5384 393.898L36.143 399.847C36.2007 400.415 36.5447 400.924 37.0561 401.2L42.4257 404.097C43.7234 404.797 43.6377 406.638 42.2783 407.212Z" fill="#F7CF52"/>
</g>
<g style="mix-blend-mode:multiply">
<path d="M268.598 302.464C268.598 302.464 299.142 326.53 307.758 286C307.758 286 299.168 322.183 326.231 315.509C326.231 315.509 300.502 338.725 338.235 347.222C338.235 347.222 309.37 336.484 308.191 360.148C308.191 360.148 299.395 329.527 278.306 373.641C278.306 373.641 294.003 328.929 264.762 336.098C264.762 336.098 302.438 332.643 268.604 302.464H268.598Z" fill="#F7CF52"/>
<path d="M268.598 302.464C268.598 302.464 299.142 326.53 307.758 286C307.758 286 299.168 322.183 326.231 315.509C326.231 315.509 300.502 338.725 338.235 347.222C338.235 347.222 309.37 336.484 308.191 360.148C308.191 360.148 299.395 329.527 278.306 373.641C278.306 373.641 294.003 328.929 264.762 336.098C264.762 336.098 302.438 332.643 268.604 302.464H268.598Z" stroke="#F7CF52" stroke-width="7.52399" stroke-linecap="round" stroke-linejoin="round"/>
</g>
<g style="mix-blend-mode:multiply">
<path d="M321 330C351.376 330 376 305.376 376 275C376 244.624 351.376 220 321 220C290.624 220 266 244.624 266 275C266 305.376 290.624 330 321 330Z" fill="#DF7291"/>
</g>
<path d="M260.6 295.316C260.6 295.316 295.429 319.84 302.464 275C302.464 275 295.197 315.087 324.408 306.188C324.408 306.188 297.628 333.101 339.409 340.172C339.409 340.172 307.202 330.13 307.305 356.085C307.305 356.085 295.882 323.11 275.412 372.606C275.412 372.606 289.95 322.77 258.381 332.339C258.381 332.339 299.389 326.339 260.6 295.321V295.316Z" stroke="black" stroke-width="6.68455" stroke-linecap="round" stroke-linejoin="round"/>
<path d="M249.302 334L235.979 336.194" stroke="black" stroke-width="6.68455" stroke-linecap="round" stroke-linejoin="round"/>
<path d="M225.107 338L224 338.355" stroke="black" stroke-width="6.68455" stroke-linecap="round" stroke-linejoin="round"/>
<path d="M252.666 289.418L241.352 279" stroke="black" stroke-width="6.68455" stroke-linecap="round" stroke-linejoin="round"/>
</svg>
