<svg width="129" height="205" viewBox="0 0 129 205" fill="none" xmlns="http://www.w3.org/2000/svg">
<g style="mix-blend-mode:multiply">
<path d="M79.5984 109.464C79.5984 109.464 110.142 133.53 118.758 93C118.758 93 110.168 129.183 137.231 122.509C137.231 122.509 111.502 145.725 149.235 154.222C149.235 154.222 120.37 143.484 119.191 167.148C119.191 167.148 110.395 136.527 89.3059 180.641C89.3059 180.641 105.003 135.929 75.7617 143.098C75.7617 143.098 113.438 139.643 79.6035 109.464H79.5984Z" fill="#F7CF52"/>
<path d="M79.5984 109.464C79.5984 109.464 110.142 133.53 118.758 93C118.758 93 110.168 129.183 137.231 122.509C137.231 122.509 111.502 145.725 149.235 154.222C149.235 154.222 120.37 143.484 119.191 167.148C119.191 167.148 110.395 136.527 89.3059 180.641C89.3059 180.641 105.003 135.929 75.7617 143.098C75.7617 143.098 113.438 139.643 79.6035 109.464H79.5984Z" stroke="#F7CF52" stroke-width="7.52399" stroke-linecap="round" stroke-linejoin="round"/>
</g>
<g style="mix-blend-mode:multiply">
<path d="M126.205 136.68C147.932 136.68 165.545 119.067 165.545 97.34C165.545 75.6131 147.932 58 126.205 58C104.478 58 86.8652 75.6131 86.8652 97.34C86.8652 119.067 104.478 136.68 126.205 136.68Z" fill="#DF7291"/>
</g>
<path d="M71.6005 102.316C71.6005 102.316 106.429 126.84 113.464 82C113.464 82 106.197 122.087 135.408 113.188C135.408 113.188 108.628 140.101 150.409 147.172C150.409 147.172 118.202 137.13 118.305 163.085C118.305 163.085 106.882 130.11 86.4115 179.606C86.4115 179.606 100.95 129.77 69.3809 139.339C69.3809 139.339 110.389 133.339 71.6005 102.321V102.316Z" stroke="#3D3833" stroke-width="6.68455" stroke-linecap="round" stroke-linejoin="round"/>
<path d="M60.3023 141L46.9795 143.194" stroke="#3D3833" stroke-width="6.68455" stroke-linecap="round" stroke-linejoin="round"/>
<path d="M36.1072 145L35 145.355" stroke="#3D3833" stroke-width="6.68455" stroke-linecap="round" stroke-linejoin="round"/>
<path d="M63.6659 96.4182L52.3516 86" stroke="#3D3833" stroke-width="6.68455" stroke-linecap="round" stroke-linejoin="round"/>
<g style="mix-blend-mode:multiply">
<path d="M87.6078 3.13829L87.6858 14.2201C87.6923 15.2802 88.2126 16.2621 89.0776 16.841L98.1043 22.8761C100.283 24.3329 99.8212 27.7277 97.3239 28.6187L86.977 32.3321C85.9885 32.6898 85.2211 33.5092 84.9284 34.5368L81.8978 45.2479C81.1694 47.8298 77.8592 48.4996 76.2984 46.3795L69.8275 37.5934C69.2097 36.7544 68.2146 36.2797 67.1741 36.3382L56.2809 36.9235C53.6535 37.0666 52.0666 34.0815 53.6015 31.8769L59.9488 22.7331C60.5536 21.8551 60.7097 20.743 60.352 19.7545L56.645 9.40755C55.7541 6.91024 58.0823 4.39994 60.5861 5.15433L70.9786 8.28899C71.9736 8.58814 73.0597 8.36701 73.8856 7.70366L82.4896 0.72551C84.5642 -0.958874 87.5883 0.471858 87.6078 3.14476V3.13829Z" fill="#F7CF52"/>
</g>
</svg>
