<svg width="216" height="161" viewBox="0 0 216 161" fill="none" xmlns="http://www.w3.org/2000/svg">
<g style="mix-blend-mode:multiply">
<path d="M110.886 119.876C88.5875 119.876 70.5107 101.8 70.5107 79.501C70.5107 57.2022 88.5875 39.1255 110.886 39.1255C133.185 39.1255 151.262 57.2022 151.262 79.501C151.262 101.8 133.185 119.876 110.886 119.876Z" fill="#80D3F1"/>
</g>
<path d="M199.909 0.000173454L234.226 17.3198L216.906 51.6367L182.589 34.317L199.909 0.000173454Z" fill="#F7CF52"/>
<path d="M146.492 128.511C134.939 135.629 121.094 139.055 107.551 137.833C96.3895 136.824 78.5356 132.396 80.0938 117.707C80.7802 111.22 86.3539 106.957 92.7652 107.246C99.0665 107.527 103.892 112.023 107.276 116.952C111.024 122.416 112.321 128.882 109.692 135.108C107.173 141.08 102.197 145.665 97.1377 149.516C85.846 158.124 70.4632 163.443 56.6592 157.897C51.5385 155.838 53.7763 147.436 58.9656 149.523C67.4979 152.948 76.4969 151.451 84.5143 147.299C88.523 145.219 92.2503 142.645 95.5726 139.583C98.6066 136.796 102.066 133.227 102.457 128.902C102.821 124.866 99.753 120.501 96.8288 117.975C94.3371 115.819 88.3446 114.439 88.6672 119.505C89.2095 127.969 104.832 129.15 110.921 129.349C121.952 129.706 132.715 126.788 142.092 121.009C146.862 118.071 151.228 125.58 146.478 128.504L146.492 128.511Z" fill="#2C7AEF"/>
<g style="mix-blend-mode:multiply">
<path d="M27.1184 31.7295L20.8787 34.1251C20.2815 34.3517 19.8354 34.8527 19.6981 35.4637L18.2086 41.8405C17.8516 43.3781 15.8335 43.8381 14.797 42.6231L10.5068 37.571C10.095 37.0836 9.47037 36.8296 8.82513 36.8846L2.13249 37.4474C0.519396 37.5847 -0.558314 35.8549 0.306581 34.5233L3.89657 29.0044C4.23978 28.4759 4.29475 27.8169 4.04077 27.2403L1.39797 21.2135C0.759598 19.7583 2.10504 18.2344 3.67695 18.6257L10.1842 20.2662C10.8089 20.4241 11.4678 20.2662 11.9552 19.8612L17.0141 15.5711C18.236 14.5346 20.1443 15.3171 20.2541 16.8959L20.6866 23.4306C20.7278 24.0553 21.0847 24.625 21.6338 24.9476L27.3997 28.3248C28.7932 29.1417 28.6285 31.1529 27.1184 31.7295Z" fill="#F7CF52"/>
</g>
</svg>
