<svg width="111" height="142" viewBox="0 0 111 142" fill="none" xmlns="http://www.w3.org/2000/svg">
<g style="mix-blend-mode:multiply">
<path d="M-4.29727 98.454C7.13636 111.151 26.6982 112.175 39.3952 100.742C52.0923 89.308 53.1165 69.7462 41.6829 57.0491C30.2492 44.3521 10.6875 43.3279 -2.0096 54.7615C-14.7067 66.1951 -15.7309 85.7569 -4.29727 98.454Z" fill="#80D3F1"/>
</g>
<path d="M78.8875 113.656L51.4297 102.997L40.7701 130.455L68.2278 141.114L78.8875 113.656Z" fill="#F7CF52"/>
<path d="M60.8768 34.8822C64.5366 36.6119 68.2645 37.1833 71.978 35.1134C75.6914 33.0435 78.5507 29.5769 81.6259 26.6095L76.9154 22.6126C70.9593 30.0993 65.436 38.8526 69.1222 48.684C73.087 59.2413 84.0709 63.8461 93.8464 67.4863C97.6163 68.8903 99.467 62.9912 95.7401 61.5484C91.0498 59.7275 86.1852 58.4598 81.1977 57.7629C76.5796 57.1226 71.3921 57.2569 67.4677 60.083C63.4194 62.9994 62.6533 67.8866 61.9685 72.5023C61.2048 77.6279 60.9486 82.8061 61.1244 87.9846L67.0211 86.7515C64.9653 81.5602 62.9133 76.3654 60.8574 71.1742C59.4858 67.7095 58.2995 62.5564 54.3813 61.0664C50.4632 59.5763 46.5649 63.3982 43.6107 65.6196C39.249 68.9032 35.0132 72.3423 30.8861 75.9101L35.5966 79.9071C38.2638 74.6316 40.9454 69.3644 43.5907 64.0804C45.6202 60.0304 47.6269 55.6328 46.4278 51.0078C43.7845 40.8176 32.3566 39.0759 23.4855 38.7902C19.4477 38.6607 19.1901 44.5763 23.1595 45.015C29.6472 45.7271 36.3872 45.7448 42.8364 44.63C46.1022 44.0673 48.9155 42.7585 51.0048 40.1268C51.9698 38.9111 52.4128 37.8468 53.2096 36.6409C57.5212 30.1182 54.2933 20.5678 51.6154 14.1671C50.0397 10.405 44.7126 13.2768 46.0432 16.9553C48.645 24.1676 53.926 31.4234 60.862 34.8815C64.408 36.6499 67.8176 31.4208 64.2169 29.6309C58.1446 26.6054 53.8819 20.4569 51.6154 14.1671L46.0432 16.9553C47.6323 20.7479 49.0678 24.9123 48.9423 29.088C48.907 30.2593 48.7923 31.028 48.5134 32.0152C48.4447 32.2612 47.9039 33.4134 48.3165 32.6455C48.2751 32.7252 47.9359 33.2289 47.952 33.2782C47.9715 33.3313 47.7402 33.5538 47.7113 33.6082C48.642 31.9065 47.2314 34.5216 47.0227 34.8793C45.428 37.6672 43.2608 38.3024 40.2416 38.7066C34.6758 39.4506 29.0512 39.3982 23.4745 38.7859L23.1486 45.0107C28.9226 45.1976 40.3424 45.6726 40.5632 53.8328C40.6607 57.5175 38.0424 61.2909 36.4509 64.444C34.4148 68.4787 32.3751 72.5096 30.335 76.5479C28.8103 79.5629 32.2333 82.9711 35.0455 80.5449C38.1427 77.8691 41.2922 75.2595 44.5189 72.7432C46.1304 71.4831 47.7631 70.2465 49.4059 69.029C50.0723 68.5351 51.112 67.5281 51.884 67.2221C52.6561 66.9162 51.8033 66.6295 52.4376 67.2474C53.4653 68.2472 53.9864 70.7437 54.493 72.0216C55.2625 73.9687 56.032 75.9158 56.8016 77.8629C58.3406 81.7571 59.8871 85.6517 61.4262 89.546C62.558 92.3984 67.4274 91.3685 67.323 88.3129C67.1913 84.3545 67.3017 80.3977 67.7091 76.4564C68.0581 73.134 68.0675 67.4773 70.949 65.2223C73.8305 62.9673 78.4118 63.5982 81.7581 64.131C85.8949 64.787 89.9216 65.981 93.8198 67.4961L95.7135 61.5582C87.8339 58.6243 78.3551 55.1486 74.9637 46.6585C71.8652 38.9025 77.563 31.7262 82.1394 25.9772C84.3358 23.2208 79.9276 19.5674 77.4289 21.9803C74.0829 25.2128 69.5591 32.16 64.2094 29.6305C60.6369 27.9425 57.2237 33.1677 60.8546 34.8811L60.8768 34.8822Z" fill="black"/>
</svg>
